<?xml version="1.0" ?><!DOCTYPE svg  PUBLIC '-//W3C//DTD SVG 1.1//EN'  'http://www.w3.org/Graphics/SVG/1.1/DTD/svg11.dtd'><svg enable-background="new 0 0 512 512" height="512px" id="Layer_1" version="1.1" viewBox="0 0 512 512" width="512px" xml:space="preserve" xmlns="http://www.w3.org/2000/svg" xmlns:xlink="http://www.w3.org/1999/xlink"><g><g><linearGradient gradientUnits="userSpaceOnUse" id="SVGID_1_" x1="416.737305" x2="416.737305" y1="375.572266" y2="442.257263"><stop offset="0" style="stop-color:#121212"/><stop offset="1" style="stop-color:#333333"/></linearGradient><path d="M502.09375,407.510742c0,17.798828-38.211914,32.217773-85.356445,32.217773    s-85.356445-14.418945-85.356445-32.217773s38.211914-32.217773,85.356445-32.217773S502.09375,389.711914,502.09375,407.510742z" fill="url(#SVGID_1_)"/><linearGradient gradientUnits="userSpaceOnUse" id="SVGID_2_" x1="323.027344" x2="512.704102" y1="457.540039" y2="457.540039"><stop offset="0" style="stop-color:#1A1A1A"/><stop offset="0.212121" style="stop-color:#262626"/><stop offset="0.272727" style="stop-color:#808080"/><stop offset="0.357576" style="stop-color:#666666"/><stop offset="0.4" style="stop-color:#333333"/><stop offset="0.515152" style="stop-color:#141414"/><stop offset="0.690909" style="stop-color:#1A1A1A"/><stop offset="0.963636" style="stop-color:#121212"/></linearGradient><path d="M511.109375,460.583008l-9.015625-54.137695l0,0    c0,17.798828-38.211914,32.217773-85.356445,32.217773s-85.356445-14.418945-85.356445-32.217773l0,0l-8.316406,54.586914    c-0.441406,1.665039-0.741211,3.363281-0.741211,5.086914c0,23.484375,42.457031,42.515625,94.838867,42.515625    c52.380859,0,94.837891-19.03125,94.837891-42.515625C512,464.237305,511.633789,462.397461,511.109375,460.583008z" fill="url(#SVGID_2_)"/><linearGradient gradientUnits="userSpaceOnUse" id="SVGID_3_" x1="330.198242" x2="503.350586" y1="425.750977" y2="425.750977"><stop offset="0" style="stop-color:#17161A"/><stop offset="0.212121" style="stop-color:#262626"/><stop offset="0.272727" style="stop-color:#808080"/><stop offset="0.357576" style="stop-color:#666666"/><stop offset="0.4" style="stop-color:#333333"/><stop offset="0.515152" style="stop-color:#131314"/><stop offset="0.690909" style="stop-color:#17171A"/><stop offset="0.963636" style="stop-color:#0E0F12"/></linearGradient><path d="M416.728516,443.991211c45.113281,0,82.201172-12.6875,86.62207-28.954102    l-1.256836-7.526367c0,17.798828-38.211914,32.217773-85.356445,32.217773s-85.356445-14.418945-85.356445-32.217773    l-1.182617,7.758789C334.910156,431.419922,371.839844,443.991211,416.728516,443.991211z" fill="url(#SVGID_3_)" opacity="0.8"/><linearGradient gradientUnits="userSpaceOnUse" id="SVGID_4_" x1="322.474609" x2="511.858398" y1="483.068359" y2="483.068359"><stop offset="0" style="stop-color:#17161A"/><stop offset="0.212121" style="stop-color:#262626"/><stop offset="0.272727" style="stop-color:#808080"/><stop offset="0.357576" style="stop-color:#666666"/><stop offset="0.4" style="stop-color:#333333"/><stop offset="0.515152" style="stop-color:#131314"/><stop offset="0.690909" style="stop-color:#17171A"/><stop offset="0.963636" style="stop-color:#0E0F12"/></linearGradient><path d="M417.162109,500.109375c-49.230469,0-89.56543-16.826172-94.253906-38.339844    c-0.191406,0.806641-0.334961,1.623047-0.433594,2.445312c2.731445,22.387695,44.071289,40.157227,94.6875,40.157227    c50.667969,0,92.044922-17.806641,94.696289-40.226562c-0.099609-0.798828-0.245117-1.591797-0.436523-2.380859    C506.734375,483.283203,466.391602,500.109375,417.162109,500.109375z" fill="url(#SVGID_4_)" opacity="0.8"/><linearGradient gradientUnits="userSpaceOnUse" id="SVGID_5_" x1="335.571289" x2="498.283203" y1="386.856445" y2="386.856445"><stop offset="0" style="stop-color:#333333"/><stop offset="0.121212" style="stop-color:#999999"/><stop offset="0.236364" style="stop-color:#E6E6E6"/><stop offset="0.333333" style="stop-color:#B3B3B3"/><stop offset="0.375758" style="stop-color:#666666"/><stop offset="0.412121" style="stop-color:#666666"/><stop offset="0.690909" style="stop-color:#808080"/><stop offset="1" style="stop-color:#333333"/></linearGradient><path d="M445.799805,349.976562c-16.924805,4.829102-37.895508,9.382812-62.737305,9.382812    c-5.111328,0-10.123047-0.150391-14.993164-0.441406c-7.583984-0.458008-14.827148-1.256836-21.579102-2.347656    l-11.155273,50.94043l0,0c0,13.219727,33.608398,27.955078,81.402344,27.955078s81.30957-14.735352,81.30957-27.955078l0,0    L483.90332,338.24707C473.463867,342.250977,459.768555,345.831055,445.799805,349.976562z" fill="url(#SVGID_5_)"/><defs><filter filterUnits="userSpaceOnUse" height="92.557617" id="Adobe_OpacityMaskFilter" width="58.208008" x="429.936523" y="341.743164"><feFlood result="back" style="flood-color:white;flood-opacity:1"/><feBlend in="SourceGraphic" in2="back" mode="normal"/></filter></defs><mask height="92.557617" id="SVGID_6_" maskUnits="userSpaceOnUse" width="58.208008" x="429.936523" y="341.743164"><g filter="url(#Adobe_OpacityMaskFilter)"><defs><filter filterUnits="userSpaceOnUse" height="92.557617" id="Adobe_OpacityMaskFilter_1_" width="58.208008" x="429.936523" y="341.743164"><feFlood result="back" style="flood-color:white;flood-opacity:1"/><feBlend in="SourceGraphic" in2="back" mode="normal"/></filter></defs><mask height="92.557617" id="SVGID_6_" maskUnits="userSpaceOnUse" width="58.208008" x="429.936523" y="341.743164"><g filter="url(#Adobe_OpacityMaskFilter_1_)"/></mask><linearGradient gradientUnits="userSpaceOnUse" id="SVGID_7_" x1="435.396484" x2="478.907654" y1="390.830078" y2="385.124115"><stop offset="0" style="stop-color:#000000"/><stop offset="0.345455" style="stop-color:#FFFFFF"/><stop offset="0.769697" style="stop-color:#FFFFFF"/><stop offset="1" style="stop-color:#000000"/></linearGradient><path d="M429.936523,354.005859l9.457031,80.294922      c21.634766-2.277344,38.727539-7.663086,48.750977-14.027344l-14.402344-78.530273      c-8.5,2.693359-18.139648,5.324219-27.942383,8.233398C440.867188,351.383789,435.551758,352.750977,429.936523,354.005859z" fill="url(#SVGID_7_)" mask="url(#SVGID_6_)"/></g></mask><linearGradient gradientUnits="userSpaceOnUse" id="SVGID_8_" x1="435.396484" x2="478.907654" y1="390.830078" y2="385.124115"><stop offset="0" style="stop-color:#FAFBFF"/><stop offset="0.345455" style="stop-color:#FFFFFF"/><stop offset="0.769697" style="stop-color:#FFFFFF"/><stop offset="1" style="stop-color:#FFFFFF"/></linearGradient><path d="M429.936523,354.005859l9.457031,80.294922    c21.634766-2.277344,38.727539-7.663086,48.750977-14.027344l-14.402344-78.530273    c-8.5,2.693359-18.139648,5.324219-27.942383,8.233398C440.867188,351.383789,435.551758,352.750977,429.936523,354.005859z" fill="url(#SVGID_8_)" opacity="0.2"/><defs><filter filterUnits="userSpaceOnUse" height="83.265625" id="Adobe_OpacityMaskFilter_2_" width="53.319336" x="446.742188" y="422.238281"><feFlood result="back" style="flood-color:white;flood-opacity:1"/><feBlend in="SourceGraphic" in2="back" mode="normal"/></filter></defs><mask height="83.265625" id="SVGID_9_" maskUnits="userSpaceOnUse" width="53.319336" x="446.742188" y="422.238281"><g filter="url(#Adobe_OpacityMaskFilter_2_)"><defs><filter filterUnits="userSpaceOnUse" height="83.265625" id="Adobe_OpacityMaskFilter_3_" width="53.319336" x="446.742188" y="422.238281"><feFlood result="back" style="flood-color:white;flood-opacity:1"/><feBlend in="SourceGraphic" in2="back" mode="normal"/></filter></defs><mask height="83.265625" id="SVGID_9_" maskUnits="userSpaceOnUse" width="53.319336" x="446.742188" y="422.238281"><g filter="url(#Adobe_OpacityMaskFilter_3_)"/></mask><linearGradient gradientUnits="userSpaceOnUse" id="SVGID_10_" x1="449.493164" x2="492.172485" y1="466.825195" y2="461.228333"><stop offset="0.157576" style="stop-color:#000000"/><stop offset="0.381818" style="stop-color:#FFFFFF"/><stop offset="0.769697" style="stop-color:#FFFFFF"/><stop offset="1" style="stop-color:#000000"/></linearGradient><path d="M446.742188,436.611328l6.152344,68.892578      c20.074219-3.664062,36.712891-10.318359,47.166992-18.732422l-8.927734-64.533203      C481.336914,428.797852,465.637695,433.932617,446.742188,436.611328z" fill="url(#SVGID_10_)" mask="url(#SVGID_9_)"/></g></mask><linearGradient gradientUnits="userSpaceOnUse" id="SVGID_11_" x1="449.493164" x2="492.172485" y1="466.825195" y2="461.228333"><stop offset="0.157576" style="stop-color:#FAFBFF"/><stop offset="0.381818" style="stop-color:#FFFFFF"/><stop offset="0.769697" style="stop-color:#FFFFFF"/><stop offset="1" style="stop-color:#FFFFFF"/></linearGradient><path d="M446.742188,436.611328l6.152344,68.892578    c20.074219-3.664062,36.712891-10.318359,47.166992-18.732422l-8.927734-64.533203    C481.336914,428.797852,465.637695,433.932617,446.742188,436.611328z" fill="url(#SVGID_11_)" opacity="0.05"/><linearGradient gradientTransform="matrix(-1 0 0 1 -572.925781 0)" gradientUnits="userSpaceOnUse" id="SVGID_12_" x1="-668.188965" x2="-668.188965" y1="375.571289" y2="442.256287"><stop offset="0" style="stop-color:#121212"/><stop offset="1" style="stop-color:#333333"/></linearGradient><path d="M9.906738,407.510742c0,17.798828,38.211914,32.217773,85.356445,32.217773    c47.144043,0,85.355957-14.418945,85.355957-32.217773s-38.211914-32.217773-85.355957-32.217773    C48.118652,375.292969,9.906738,389.711914,9.906738,407.510742z" fill="url(#SVGID_12_)"/><linearGradient gradientUnits="userSpaceOnUse" id="SVGID_13_" x1="7.546875" x2="187.866791" y1="443.990234" y2="463.622162"><stop offset="0" style="stop-color:#1A1A1A"/><stop offset="0.115152" style="stop-color:#262626"/><stop offset="0.218182" style="stop-color:#808080"/><stop offset="0.30303" style="stop-color:#666666"/><stop offset="0.363636" style="stop-color:#333333"/><stop offset="0.454545" style="stop-color:#141414"/><stop offset="0.690909" style="stop-color:#1A1A1A"/><stop offset="0.963636" style="stop-color:#121212"/></linearGradient><path d="M0.890625,460.583008l9.016113-54.137695l0,0    c0,17.798828,38.211914,32.217773,85.356445,32.217773c47.144043,0,85.355957-14.418945,85.355957-32.217773l0,0    l8.316895,54.586914c0.440918,1.665039,0.740723,3.363281,0.740723,5.086914c0,23.484375-42.45752,42.515625-94.838379,42.515625    S0,489.603516,0,466.119141C0,464.237305,0.366211,462.397461,0.890625,460.583008z" fill="url(#SVGID_13_)"/><linearGradient gradientTransform="matrix(-1 0 0 1 -572.925781 0)" gradientUnits="userSpaceOnUse" id="SVGID_14_" x1="-754.727051" x2="-581.575195" y1="425.750977" y2="425.750977"><stop offset="0.036364" style="stop-color:#0E0F12"/><stop offset="0.309091" style="stop-color:#17171A"/><stop offset="0.484848" style="stop-color:#131314"/><stop offset="0.6" style="stop-color:#333333"/><stop offset="0.642424" style="stop-color:#666666"/><stop offset="0.727273" style="stop-color:#808080"/><stop offset="0.787879" style="stop-color:#262626"/><stop offset="1" style="stop-color:#17161A"/></linearGradient><path d="M95.271484,443.991211c-45.113281,0-82.201172-12.6875-86.62207-28.954102    l1.257324-7.526367c0,17.798828,38.211914,32.217773,85.356445,32.217773c47.144043,0,85.355957-14.418945,85.355957-32.217773    l1.182129,7.758789C177.089355,431.419922,140.159668,443.991211,95.271484,443.991211z" fill="url(#SVGID_14_)" opacity="0.8"/><linearGradient gradientTransform="matrix(-1 0 0 1 -572.925781 0)" gradientUnits="userSpaceOnUse" id="SVGID_15_" x1="-762.452637" x2="-573.067383" y1="483.068359" y2="483.068359"><stop offset="0.036364" style="stop-color:#0E0F12"/><stop offset="0.309091" style="stop-color:#17171A"/><stop offset="0.484848" style="stop-color:#131314"/><stop offset="0.6" style="stop-color:#333333"/><stop offset="0.642424" style="stop-color:#666666"/><stop offset="0.727273" style="stop-color:#808080"/><stop offset="0.787879" style="stop-color:#262626"/><stop offset="1" style="stop-color:#17161A"/></linearGradient><path d="M94.838379,500.109375c49.231934,0,89.564453-16.826172,94.255859-38.339844    c0.191406,0.806641,0.334961,1.623047,0.432617,2.445312c-2.730469,22.387695-44.072266,40.157227-94.688477,40.157227    c-50.666016,0-92.043457-17.806641-94.696777-40.226562c0.099609-0.798828,0.245605-1.591797,0.437012-2.380859    C5.265625,483.283203,45.608398,500.109375,94.838379,500.109375z" fill="url(#SVGID_15_)" opacity="0.8"/><linearGradient gradientTransform="matrix(-1 0 0 1 -572.925781 0)" gradientUnits="userSpaceOnUse" id="SVGID_16_" x1="-745.947266" x2="-591.735535" y1="400.033203" y2="382.730835"><stop offset="0" style="stop-color:#333333"/><stop offset="0.309091" style="stop-color:#808080"/><stop offset="0.587879" style="stop-color:#666666"/><stop offset="0.624242" style="stop-color:#666666"/><stop offset="0.666667" style="stop-color:#B3B3B3"/><stop offset="0.763636" style="stop-color:#E6E6E6"/><stop offset="0.878788" style="stop-color:#999999"/><stop offset="1" style="stop-color:#333333"/></linearGradient><path d="M66.283691,349.976562c16.924805,4.829102,37.895508,9.382812,62.737305,9.382812    c5.111328,0,10.123047-0.150391,14.993164-0.441406c7.583984-0.458008,14.82666-1.256836,21.578613-2.347656l11.155273,50.94043    l0,0c0,13.219727-33.60791,27.955078-81.401855,27.955078s-81.310059-14.735352-81.310059-27.955078l0,0l14.144043-69.263672    C38.619629,342.250977,52.314453,345.831055,66.283691,349.976562z" fill="url(#SVGID_16_)"/><defs><filter filterUnits="userSpaceOnUse" height="85.422852" id="Adobe_OpacityMaskFilter_4_" width="58.083496" x="111.055664" y="422.579102"><feFlood result="back" style="flood-color:white;flood-opacity:1"/><feBlend in="SourceGraphic" in2="back" mode="normal"/></filter></defs><mask height="85.422852" id="SVGID_17_" maskUnits="userSpaceOnUse" width="58.083496" x="111.055664" y="422.579102"><g filter="url(#Adobe_OpacityMaskFilter_4_)"><defs><filter filterUnits="userSpaceOnUse" height="85.422852" id="Adobe_OpacityMaskFilter_5_" width="58.083496" x="111.055664" y="422.579102"><feFlood result="back" style="flood-color:white;flood-opacity:1"/><feBlend in="SourceGraphic" in2="back" mode="normal"/></filter></defs><mask height="85.422852" id="SVGID_17_" maskUnits="userSpaceOnUse" width="58.083496" x="111.055664" y="422.579102"><g filter="url(#Adobe_OpacityMaskFilter_5_)"/></mask><linearGradient gradientUnits="userSpaceOnUse" id="SVGID_18_" x1="111.055664" x2="169.13916" y1="465.291016" y2="465.291016"><stop offset="0.157576" style="stop-color:#000000"/><stop offset="0.381818" style="stop-color:#FFFFFF"/><stop offset="0.769697" style="stop-color:#FFFFFF"/><stop offset="1" style="stop-color:#000000"/></linearGradient><path d="M111.055664,508.001953      c23.42627-1.808594,43.901855-7.46582,58.083496-15.474609v-69.948242      c-12.244141,7.97168-33.26709,13.771484-58.083496,15.526367V508.001953z" fill="url(#SVGID_18_)" mask="url(#SVGID_17_)"/></g></mask><linearGradient gradientUnits="userSpaceOnUse" id="SVGID_19_" x1="111.055664" x2="169.13916" y1="465.291016" y2="465.291016"><stop offset="0.157576" style="stop-color:#FAFBFF"/><stop offset="0.381818" style="stop-color:#FFFFFF"/><stop offset="0.769697" style="stop-color:#FFFFFF"/><stop offset="1" style="stop-color:#FFFFFF"/></linearGradient><path d="M111.055664,508.001953c23.42627-1.808594,43.901855-7.46582,58.083496-15.474609    v-69.948242c-12.244141,7.97168-33.26709,13.771484-58.083496,15.526367V508.001953z" fill="url(#SVGID_19_)" opacity="0.05"/><defs><filter filterUnits="userSpaceOnUse" height="78.109375" id="Adobe_OpacityMaskFilter_6_" width="58.083496" x="103.071777" y="357.214844"><feFlood result="back" style="flood-color:white;flood-opacity:1"/><feBlend in="SourceGraphic" in2="back" mode="normal"/></filter></defs><mask height="78.109375" id="SVGID_20_" maskUnits="userSpaceOnUse" width="58.083496" x="103.071777" y="357.214844"><g filter="url(#Adobe_OpacityMaskFilter_6_)"><defs><filter filterUnits="userSpaceOnUse" height="78.109375" id="Adobe_OpacityMaskFilter_7_" width="58.083496" x="103.071777" y="357.214844"><feFlood result="back" style="flood-color:white;flood-opacity:1"/><feBlend in="SourceGraphic" in2="back" mode="normal"/></filter></defs><mask height="78.109375" id="SVGID_20_" maskUnits="userSpaceOnUse" width="58.083496" x="103.071777" y="357.214844"><g filter="url(#Adobe_OpacityMaskFilter_7_)"/></mask><linearGradient gradientUnits="userSpaceOnUse" id="SVGID_21_" x1="103.071777" x2="161.155273" y1="396.269531" y2="396.269531"><stop offset="0" style="stop-color:#000000"/><stop offset="0.345455" style="stop-color:#FFFFFF"/><stop offset="0.769697" style="stop-color:#FFFFFF"/><stop offset="1" style="stop-color:#000000"/></linearGradient><path d="M161.155273,423.363281v-66.148438      c-5.483887,0.762695-11.242676,1.34082-17.224121,1.703125c-4.870605,0.291016-9.881836,0.441406-14.993652,0.441406      c-0.990723,0-1.9375-0.050781-2.917969-0.067383c-3.121582,0.299805-6.301758,0.5625-9.582031,0.739258      c-4.337402,0.235352-8.807617,0.353516-13.365723,0.360352v74.932617      C127.813477,434.475586,148.172363,429.65918,161.155273,423.363281z" fill="url(#SVGID_21_)" mask="url(#SVGID_20_)"/></g></mask><linearGradient gradientUnits="userSpaceOnUse" id="SVGID_22_" x1="103.071777" x2="161.155273" y1="396.269531" y2="396.269531"><stop offset="0" style="stop-color:#FAFBFF"/><stop offset="0.345455" style="stop-color:#FFFFFF"/><stop offset="0.769697" style="stop-color:#FFFFFF"/><stop offset="1" style="stop-color:#FFFFFF"/></linearGradient><path d="M161.155273,423.363281v-66.148438    c-5.483887,0.762695-11.242676,1.34082-17.224121,1.703125c-4.870605,0.291016-9.881836,0.441406-14.993652,0.441406    c-0.990723,0-1.9375-0.050781-2.917969-0.067383c-3.121582,0.299805-6.301758,0.5625-9.582031,0.739258    c-4.337402,0.235352-8.807617,0.353516-13.365723,0.360352v74.932617    C127.813477,434.475586,148.172363,429.65918,161.155273,423.363281z" fill="url(#SVGID_22_)" opacity="0.2"/></g><g><radialGradient cx="442.982422" cy="9025.570312" gradientTransform="matrix(1 0 0 0.4762 0 -4156.353027)" gradientUnits="userSpaceOnUse" id="SVGID_23_" r="85.838005"><stop offset="0" style="stop-color:#333333"/><stop offset="0.521212" style="stop-color:#292929"/><stop offset="1" style="stop-color:#1A1A1A"/></radialGradient><path d="M483.828125,124.943848c0-11.796875-34.740234-21.354004-77.597656-21.354004    c-22.568359,0-42.848633,2.672363-57.017578,6.910156c-30.02832,2.946777-51.506836,10.805664-51.506836,20.096191    c0,10.506348,27.547852,19.239258,63.90332,21.020996c4.428711,0.215332,8.982422,0.333008,13.635742,0.333008    c22.569336,0,41.641602-3.363281,57.017578-6.910156C458.544922,138.705078,483.828125,134.226074,483.828125,124.943848z" fill="url(#SVGID_23_)"/><linearGradient gradientUnits="userSpaceOnUse" id="SVGID_24_" x1="256.000488" x2="256.000488" y1="321.936523" y2="267.180145"><stop offset="0" style="stop-color:#333333"/><stop offset="1" style="stop-color:#121212"/></linearGradient><path d="M415.12207,264.529297c-24.342773,0-93.689453,15.633789-104.603516,17.873047    c-8.599609,1.765625-22.294922,3.663086-36.854492,3.671875c-1.499023,0-12.799805,0-17.620117,0    c-0.027344,0-0.060547,0-0.087891,0c-4.817871,0-16.121094,0-17.619629,0    c-14.560547-0.008789-28.254883-1.90625-36.85498-3.671875c-10.914062-2.239258-80.26123-17.873047-104.603516-17.873047    c-46.203613,0-83.83252,11.446289-83.83252,25.574219c0,11.12207,27.438965,16.5,55.769043,24.067383    c16.583496,4.262695,37.137695,8.283203,61.47998,8.283203c5.011719,0,9.92334-0.141602,14.693848-0.390625    c39.193848-2.131836,69.289062-12.59668,69.289062-25.183594c0-2.147461,5.411133-0.624023,6.909668,0.049805    c0.058105,0.025391,0.133301,0.058594,0.174805,0.075195c1.456543,0.682617,2.26416,1.498047,2.680664,2.081055    c0.208008,0.033203,0.458008,0.557617,0.458008,0.798828c0,5.203125,14.139648,9.416016,31.455566,9.432617l0,0    c0.014648,0,0.029297,0,0.043945,0s0.029297,0,0.043945,0l0,0C273.361328,309.300781,287.5,305.087891,287.5,299.884766    c0-0.241211,0.249023-0.765625,0.458008-0.798828c0.416016-0.583008,1.223633-1.398438,2.680664-2.081055    c0.041016-0.016602,0.116211-0.049805,0.174805-0.075195c1.498047-0.673828,6.90918-2.197266,6.90918-0.049805    c0,12.586914,30.094727,23.051758,69.289062,25.183594c4.770508,0.249023,9.681641,0.390625,14.693359,0.390625    c24.342773,0,44.897461-4.020508,61.480469-8.283203c28.330078-7.567383,55.769531-12.945312,55.769531-24.067383    C498.955078,275.975586,461.326172,264.529297,415.12207,264.529297z" fill="url(#SVGID_24_)"/><linearGradient gradientUnits="userSpaceOnUse" id="SVGID_25_" x1="302.318359" x2="494.508789" y1="225.047363" y2="225.047363"><stop offset="0" style="stop-color:#333333"/><stop offset="0.121212" style="stop-color:#999999"/><stop offset="0.236364" style="stop-color:#E6E6E6"/><stop offset="0.333333" style="stop-color:#B3B3B3"/><stop offset="0.375758" style="stop-color:#808080"/><stop offset="0.430303" style="stop-color:#666666"/><stop offset="0.551515" style="stop-color:#737373"/><stop offset="0.690909" style="stop-color:#808080"/><stop offset="1" style="stop-color:#404040"/></linearGradient><path d="M481.99707,131.90332c-7.90918,6.510254-27.855469,10.789062-48.46875,16.300293    c-15.53418,3.987793-34.790039,7.759277-57.591797,7.759277c-4.695312,0-9.299805-0.125-13.761719-0.366699    c-27.74707-1.506836-50.424805-7.483887-59.856445-15.400879v156.68457c0,7.292969,22.560547,18.623047,64.917969,20.928711    c4.695312,0.242188,9.532227,0.382812,14.46875,0.382812c25.741211,0,46.811523-4.65332,60.381836-8.141602    c3.696289-0.982422,7.375977-1.930664,10.980469-2.863281c18.464844-4.770508,41.441406-10.706055,41.441406-17.083008    L481.99707,131.90332z" fill="url(#SVGID_25_)"/><defs><filter filterUnits="userSpaceOnUse" height="173.284668" id="Adobe_OpacityMaskFilter_8_" width="59.931641" x="427.646484" y="138.700684"><feFlood result="back" style="flood-color:white;flood-opacity:1"/><feBlend in="SourceGraphic" in2="back" mode="normal"/></filter></defs><mask height="173.284668" id="SVGID_26_" maskUnits="userSpaceOnUse" width="59.931641" x="427.646484" y="138.700684"><g filter="url(#Adobe_OpacityMaskFilter_8_)"><defs><filter filterUnits="userSpaceOnUse" height="173.284668" id="Adobe_OpacityMaskFilter_9_" width="59.931641" x="427.646484" y="138.700684"><feFlood result="back" style="flood-color:white;flood-opacity:1"/><feBlend in="SourceGraphic" in2="back" mode="normal"/></filter></defs><mask height="173.284668" id="SVGID_26_" maskUnits="userSpaceOnUse" width="59.931641" x="427.646484" y="138.700684"><g filter="url(#Adobe_OpacityMaskFilter_9_)"/></mask><linearGradient gradientUnits="userSpaceOnUse" id="SVGID_27_" x1="429.547852" x2="476.865417" y1="228.650391" y2="222.445267"><stop offset="0" style="stop-color:#000000"/><stop offset="0.345455" style="stop-color:#FFFFFF"/><stop offset="0.769697" style="stop-color:#FFFFFF"/><stop offset="1" style="stop-color:#000000"/></linearGradient><path d="M470.916016,138.700684      c-9.81543,3.67334-23.441406,6.838867-37.387695,10.568848c-1.904297,0.48877-3.867188,0.973633-5.881836,1.448242      l10.976562,161.267578c1.197266-0.294922,2.364258-0.586914,3.463867-0.870117      c3.696289-0.982422,7.375977-1.930664,10.980469-2.863281c12.166992-3.142578,26.290039-6.792969,34.510742-10.741211      L470.916016,138.700684z" fill="url(#SVGID_27_)" mask="url(#SVGID_26_)"/></g></mask><linearGradient gradientUnits="userSpaceOnUse" id="SVGID_28_" x1="429.547852" x2="476.865417" y1="228.650391" y2="222.445267"><stop offset="0" style="stop-color:#FAFBFF"/><stop offset="0.345455" style="stop-color:#FFFFFF"/><stop offset="0.769697" style="stop-color:#FFFFFF"/><stop offset="1" style="stop-color:#FFFFFF"/></linearGradient><path d="M470.916016,138.700684c-9.81543,3.67334-23.441406,6.838867-37.387695,10.568848    c-1.904297,0.48877-3.867188,0.973633-5.881836,1.448242l10.976562,161.267578    c1.197266-0.294922,2.364258-0.586914,3.463867-0.870117c3.696289-0.982422,7.375977-1.930664,10.980469-2.863281    c12.166992-3.142578,26.290039-6.792969,34.510742-10.741211L470.916016,138.700684z" fill="url(#SVGID_28_)" opacity="0.2"/><linearGradient gradientUnits="userSpaceOnUse" id="SVGID_29_" x1="297.581055" x2="485.651367" y1="147.379395" y2="147.379395"><stop offset="0" style="stop-color:#1C1B1F"/><stop offset="0.157576" style="stop-color:#404040"/><stop offset="0.236364" style="stop-color:#B3B3B3"/><stop offset="0.333333" style="stop-color:#808080"/><stop offset="0.412121" style="stop-color:#333333"/><stop offset="0.466667" style="stop-color:#141414"/><stop offset="0.690909" style="stop-color:#262626"/><stop offset="0.745455" style="stop-color:#333333"/><stop offset="0.909091" style="stop-color:#333333"/><stop offset="0.963636" style="stop-color:#1A1A1A"/></linearGradient><path d="M483.828125,123.87793c0,9.282715-25.283203,13.76123-51.56543,20.09668    c-15.375977,3.546387-34.448242,6.909668-57.017578,6.909668c-4.65332,0-9.207031-0.117676-13.635742-0.333008    c-36.355469-1.78125-63.90332-10.51416-63.90332-21.020508l-0.125,17.382812c0,11.796387,27.87207,21.603027,64.59375,23.601074    c4.461914,0.241699,9.066406,0.366211,13.761719,0.366211c22.801758,0,42.057617-3.770996,57.591797-7.758789    c26.532227-7.092773,52.123047-12.096191,52.123047-22.510742L483.828125,123.87793z" fill="url(#SVGID_29_)"/><linearGradient gradientUnits="userSpaceOnUse" id="SVGID_30_" x1="297.65625" x2="484.46875" y1="140.578125" y2="140.578125"><stop offset="0" style="stop-color:#1C1B1F"/><stop offset="0.157576" style="stop-color:#404040"/><stop offset="0.236364" style="stop-color:#B3B3B3"/><stop offset="0.333333" style="stop-color:#808080"/><stop offset="0.412121" style="stop-color:#333333"/><stop offset="0.466667" style="stop-color:#141414"/><stop offset="0.690909" style="stop-color:#262626"/><stop offset="0.745455" style="stop-color:#333333"/><stop offset="0.909091" style="stop-color:#333333"/><stop offset="0.963636" style="stop-color:#1A1A1A"/></linearGradient><path d="M361.30957,155.879395c4.469727,0.215332,9.074219,0.333008,13.769531,0.333008    c22.793945,0,42.057617-3.363281,57.591797-6.909668c24.942383-5.952637,48.993164-10.272949,51.797852-18.473145    l-0.640625-5.885742c0,9.282227-25.283203,13.76123-51.56543,20.096191    c-15.375977,3.546875-34.448242,6.910156-57.017578,6.910156c-4.65332,0-9.207031-0.117676-13.635742-0.333008    c-36.355469-1.781738-63.90332-10.514648-63.90332-21.020996l-0.049805,7.351074    C302.493164,147.037109,328.258789,154.272461,361.30957,155.879395z" fill="url(#SVGID_30_)" opacity="0.8"/><path d="M433.52832,158.859863c-15.53418,3.987793-34.790039,7.758789-57.591797,7.758789    c-4.695312,0-9.299805-0.125-13.761719-0.366211c-36.513672-1.989746-64.251953-11.696777-64.560547-23.401855l-0.033203,4.062988    c0,11.796387,27.87207,21.603027,64.59375,23.601074c4.461914,0.241699,9.066406,0.366211,13.761719,0.366211    c22.801758,0,42.057617-3.770996,57.591797-7.758789c26.532227-7.092773,52.123047-12.096191,52.123047-22.510742    l-0.274414-2.505859C482.654297,147.346191,458.520508,152.174805,433.52832,158.859863z" fill="#808080" opacity="0.5"/><linearGradient gradientUnits="userSpaceOnUse" id="SVGID_31_" x1="292.103516" x2="395.375" y1="104.763672" y2="104.763672"><stop offset="0.048485" style="stop-color:#1C1B1F"/><stop offset="0.163636" style="stop-color:#676767"/><stop offset="0.230303" style="stop-color:#B3B3B3"/><stop offset="0.333333" style="stop-color:#808080"/><stop offset="0.412121" style="stop-color:#333333"/><stop offset="0.716867" style="stop-color:#141414"/><stop offset="0.848485" style="stop-color:#333333"/><stop offset="0.963636" style="stop-color:#1A1A1A"/></linearGradient><path d="M343.743164,106.245605c-28.521484,0-51.639648-3.22998-51.639648-7.226074    v4.262695c0,3.995605,23.118164,7.226074,51.639648,7.226074c28.513672,0,51.631836-3.230469,51.631836-7.226074v-4.262695    C395.375,103.015625,372.256836,106.245605,343.743164,106.245605z" fill="url(#SVGID_31_)" opacity="0.2"/><linearGradient gradientUnits="userSpaceOnUse" id="SVGID_32_" x1="256.068359" x2="256.068359" y1="103.133301" y2="113.104881"><stop offset="0" style="stop-color:#121212"/><stop offset="1" style="stop-color:#333333"/></linearGradient><path d="M281.338867,108.243652c0,2.688965-11.313477,4.870117-25.266113,4.870117    c-13.960938,0-25.274414-2.181152-25.274414-4.870117s11.313477-4.878418,25.274414-4.878418    C270.025391,103.365234,281.338867,105.554688,281.338867,108.243652z" fill="url(#SVGID_32_)"/><linearGradient gradientUnits="userSpaceOnUse" id="SVGID_33_" x1="230.681641" x2="281.338867" y1="145.585449" y2="145.585449"><stop offset="0.018182" style="stop-color:#1A1A1A"/><stop offset="0.175758" style="stop-color:#4D4D4D"/><stop offset="0.224242" style="stop-color:#808080"/><stop offset="0.321212" style="stop-color:#666666"/><stop offset="0.442424" style="stop-color:#333333"/><stop offset="0.716867" style="stop-color:#141414"/><stop offset="0.848485" style="stop-color:#333333"/><stop offset="0.963636" style="stop-color:#1A1A1A"/></linearGradient><path d="M281.222656,106.104004v0.008301c0,2.680664-11.313477,4.853516-25.216309,4.870117    c-13.902832-0.016602-25.208008-2.189453-25.208008-4.870117v-0.008301h-0.116699v73.052246h0.058105    c0.233398,3.271484,11.463379,5.910645,25.266602,5.910645c13.819824,0,25.041504-2.63916,25.274902-5.910645h0.057617v-73.052246    H281.222656z" fill="url(#SVGID_33_)"/><linearGradient gradientUnits="userSpaceOnUse" id="SVGID_34_" x1="255.952148" x2="255.952148" y1="104.554688" y2="98.072769"><stop offset="0" style="stop-color:#333333"/><stop offset="1" style="stop-color:#121212"/></linearGradient><path d="M276.168945,101.416992c0,1.606934-9.048828,2.914062-20.212891,2.914062    c-11.171875,0-20.221191-1.307129-20.221191-2.914062c0-1.614746,9.049316-2.921875,20.221191-2.921875    C267.120117,98.495117,276.168945,99.802246,276.168945,101.416992z" fill="url(#SVGID_34_)"/><linearGradient gradientUnits="userSpaceOnUse" id="SVGID_35_" x1="235.734863" x2="276.168945" y1="106.070801" y2="106.070801"><stop offset="0.018182" style="stop-color:#1A1A1A"/><stop offset="0.175758" style="stop-color:#4D4D4D"/><stop offset="0.224242" style="stop-color:#808080"/><stop offset="0.321212" style="stop-color:#666666"/><stop offset="0.442424" style="stop-color:#333333"/><stop offset="0.716867" style="stop-color:#141414"/><stop offset="0.848485" style="stop-color:#333333"/><stop offset="0.963636" style="stop-color:#1A1A1A"/></linearGradient><path d="M276.168945,101.416992c0,1.606934-9.048828,2.914062-20.212891,2.914062    c-11.171875,0-20.221191-1.307129-20.221191-2.914062v6.102539h0.102051c-0.064453,0.095703-0.102051,0.193359-0.102051,0.291504    c0,1.606445,9.049316,2.913574,20.221191,2.913574c11.164062,0,20.212891-1.307129,20.212891-2.913574    c0-0.098145-0.037109-0.195801-0.101562-0.291504h0.101562V101.416992z" fill="url(#SVGID_35_)"/><linearGradient gradientUnits="userSpaceOnUse" id="SVGID_36_" x1="235.734863" x2="276.168945" y1="105.004883" y2="105.004883"><stop offset="0.018182" style="stop-color:#333333"/><stop offset="0.139394" style="stop-color:#676767"/><stop offset="0.204819" style="stop-color:#B3B3B3"/><stop offset="0.345455" style="stop-color:#808080"/><stop offset="0.466667" style="stop-color:#333333"/><stop offset="0.716867" style="stop-color:#141414"/><stop offset="0.848485" style="stop-color:#333333"/><stop offset="0.963636" style="stop-color:#202020"/></linearGradient><path d="M255.956055,104.331055c-11.171875,0-20.221191-1.307129-20.221191-2.914062    v4.262695c0,1.606445,9.049316,2.913574,20.221191,2.913574c11.164062,0,20.212891-1.307129,20.212891-2.913574v-4.262695    C276.168945,103.023926,267.120117,104.331055,255.956055,104.331055z" fill="url(#SVGID_36_)" opacity="0.5"/><radialGradient cx="-641.944336" cy="9025.570312" gradientTransform="matrix(-1 0 0 0.4762 -572.925781 -4156.353027)" gradientUnits="userSpaceOnUse" id="SVGID_37_" r="85.839592"><stop offset="0" style="stop-color:#333333"/><stop offset="0.521212" style="stop-color:#292929"/><stop offset="1" style="stop-color:#1A1A1A"/></radialGradient><path d="M28.171875,124.943848c0-11.796875,34.740234-21.354004,77.597168-21.354004    c22.569336,0,42.848633,2.672363,57.018066,6.910156c30.02832,2.946777,51.506836,10.805664,51.506836,20.096191    c0,10.506348-27.547363,19.239258-63.902832,21.020996c-4.428711,0.215332-8.98291,0.333008-13.63623,0.333008    c-22.569336,0-41.641602-3.363281-57.018066-6.910156C53.455078,138.705078,28.171875,134.226074,28.171875,124.943848z" fill="url(#SVGID_37_)"/><linearGradient gradientTransform="matrix(-1 0 0 1 -572.925781 0)" gradientUnits="userSpaceOnUse" id="SVGID_38_" x1="-741.186523" x2="-741.186523" y1="3.677734" y2="14.067283"><stop offset="0" style="stop-color:#121212"/><stop offset="1" style="stop-color:#333333"/></linearGradient><path d="M121.320312,9.334473c0,3.296387,21.012207,5.96875,46.936523,5.96875    c25.932129,0,46.944336-2.672363,46.944336-5.96875c0-3.296875-21.012207-5.969238-46.944336-5.969238    C142.33252,3.365234,121.320312,6.037598,121.320312,9.334473z" fill="url(#SVGID_38_)"/><linearGradient gradientTransform="matrix(-1 0 0 1 -572.925781 0)" gradientUnits="userSpaceOnUse" id="SVGID_39_" x1="-739.99707" x2="-739.99707" y1="56.900391" y2="37.682693"><stop offset="0" style="stop-color:#333333"/><stop offset="1" style="stop-color:#121212"/></linearGradient><path d="M111.240723,47.820801c0,5.244629,24.993652,9.494629,55.825195,9.494629    c30.840332,0,55.835938-4.25,55.835938-9.494629c0-5.246582-24.995605-9.494629-55.835938-9.494629    C136.234375,38.326172,111.240723,42.574219,111.240723,47.820801z" fill="url(#SVGID_39_)"/><linearGradient gradientTransform="matrix(-1 0 0 1 -572.925781 0)" gradientUnits="userSpaceOnUse" id="SVGID_40_" x1="-795.827637" x2="-684.166504" y1="65.467773" y2="65.467773"><stop offset="0" style="stop-color:#333333"/><stop offset="0.309091" style="stop-color:#808080"/><stop offset="0.448485" style="stop-color:#737373"/><stop offset="0.569697" style="stop-color:#666666"/><stop offset="0.624242" style="stop-color:#808080"/><stop offset="0.666667" style="stop-color:#B3B3B3"/><stop offset="0.763636" style="stop-color:#E6E6E6"/><stop offset="0.878788" style="stop-color:#999999"/><stop offset="1" style="stop-color:#333333"/></linearGradient><path d="M167.065918,57.31543c30.840332,0,55.835938-4.25,55.835938-9.494629v24.850098    c0,5.771484-24.995605,10.443848-55.835938,10.443848c-30.831543,0-55.825195-4.672363-55.825195-10.443848V47.820801    C111.240723,53.06543,136.234375,57.31543,167.065918,57.31543z" fill="url(#SVGID_40_)"/><linearGradient gradientUnits="userSpaceOnUse" id="SVGID_41_" x1="111.240723" x2="222.901855" y1="75.392578" y2="75.392578"><stop offset="0.036364" style="stop-color:#1A1A1A"/><stop offset="0.151515" style="stop-color:#333333"/><stop offset="0.283133" style="stop-color:#141414"/><stop offset="0.587879" style="stop-color:#333333"/><stop offset="0.666667" style="stop-color:#808080"/><stop offset="0.769697" style="stop-color:#B3B3B3"/><stop offset="0.836364" style="stop-color:#676767"/><stop offset="0.951515" style="stop-color:#1C1B1F"/></linearGradient><path d="M167.065918,78.484863c-30.831543,0-55.825195-4.67334-55.825195-10.446777    v4.262695c0,5.772949,24.993652,10.446777,55.825195,10.446777c30.840332,0,55.835938-4.673828,55.835938-10.446777v-4.262695    C222.901855,73.811523,197.90625,78.484863,167.065918,78.484863z" fill="url(#SVGID_41_)" opacity="0.3"/><linearGradient gradientTransform="matrix(-1 0 0 1 -572.925781 0)" gradientUnits="userSpaceOnUse" id="SVGID_42_" x1="-795.827637" x2="-684.166504" y1="54.293457" y2="54.293457"><stop offset="0.048485" style="stop-color:#1C1B1F"/><stop offset="0.163636" style="stop-color:#676767"/><stop offset="0.230303" style="stop-color:#B3B3B3"/><stop offset="0.333333" style="stop-color:#808080"/><stop offset="0.412121" style="stop-color:#333333"/><stop offset="0.716867" style="stop-color:#141414"/><stop offset="0.848485" style="stop-color:#333333"/><stop offset="0.963636" style="stop-color:#1A1A1A"/></linearGradient><path d="M167.065918,57.31543c30.840332,0,55.835938-4.25,55.835938-9.494629v3.450684    c0,5.249023-24.995605,9.494629-55.835938,9.494629c-30.831543,0-55.825195-4.245605-55.825195-9.494629v-3.450684    C111.240723,53.06543,136.234375,57.31543,167.065918,57.31543z" fill="url(#SVGID_42_)" opacity="0.8"/><linearGradient gradientTransform="matrix(-1 0 0 1 -572.925781 0)" gradientUnits="userSpaceOnUse" id="SVGID_43_" x1="-788.126953" x2="-694.246094" y1="31.162109" y2="31.162109"><stop offset="0.036364" style="stop-color:#1A1A1A"/><stop offset="0.151515" style="stop-color:#333333"/><stop offset="0.283133" style="stop-color:#141414"/><stop offset="0.587879" style="stop-color:#333333"/><stop offset="0.666667" style="stop-color:#808080"/><stop offset="0.769697" style="stop-color:#B3B3B3"/><stop offset="0.836364" style="stop-color:#676767"/><stop offset="0.951515" style="stop-color:#1C1B1F"/></linearGradient><path d="M168.256836,14.237793c25.932129,0,46.944336-2.672363,46.944336-5.969238v39.077637    c0,3.712891-21.012207,6.709961-46.944336,6.709961c-25.924316,0-46.936523-2.99707-46.936523-6.709961V8.268555    C121.320312,11.56543,142.33252,14.237793,168.256836,14.237793z" fill="url(#SVGID_43_)"/><linearGradient gradientTransform="matrix(-1 0 0 1 -572.925781 0)" gradientUnits="userSpaceOnUse" id="SVGID_44_" x1="-788.126953" x2="-694.246094" y1="48.570312" y2="48.570312"><stop offset="0.048485" style="stop-color:#1C1B1F"/><stop offset="0.163636" style="stop-color:#676767"/><stop offset="0.230303" style="stop-color:#B3B3B3"/><stop offset="0.333333" style="stop-color:#808080"/><stop offset="0.412121" style="stop-color:#333333"/><stop offset="0.716867" style="stop-color:#141414"/><stop offset="0.848485" style="stop-color:#333333"/><stop offset="0.963636" style="stop-color:#1A1A1A"/></linearGradient><path d="M168.256836,49.793945c25.932129,0,46.944336-2.99707,46.944336-6.709961v4.262207    c0,3.712891-21.012207,6.709961-46.944336,6.709961c-25.924316,0-46.936523-2.99707-46.936523-6.709961v-4.262207    C121.320312,46.796875,142.33252,49.793945,168.256836,49.793945z" fill="url(#SVGID_44_)" opacity="0.2"/><linearGradient gradientTransform="matrix(-1 0 0 1 -572.925781 0)" gradientUnits="userSpaceOnUse" id="SVGID_45_" x1="-788.126953" x2="-694.246094" y1="13.384277" y2="13.384277"><stop offset="0.048485" style="stop-color:#1C1B1F"/><stop offset="0.163636" style="stop-color:#676767"/><stop offset="0.230303" style="stop-color:#B3B3B3"/><stop offset="0.333333" style="stop-color:#808080"/><stop offset="0.412121" style="stop-color:#333333"/><stop offset="0.716867" style="stop-color:#141414"/><stop offset="0.848485" style="stop-color:#333333"/><stop offset="0.963636" style="stop-color:#1A1A1A"/></linearGradient><path d="M168.256836,14.237793c25.932129,0,46.944336-2.672363,46.944336-5.969238v4.262695    c0,3.296875-21.012207,5.96875-46.944336,5.96875c-25.924316,0-46.936523-2.671875-46.936523-5.96875V8.268555    C121.320312,11.56543,142.33252,14.237793,168.256836,14.237793z" fill="url(#SVGID_45_)" opacity="0.5"/><defs><filter filterUnits="userSpaceOnUse" height="28.89502" id="Adobe_OpacityMaskFilter_10_" width="30.27832" x="302.318359" y="162.655762"><feFlood result="back" style="flood-color:white;flood-opacity:1"/><feBlend in="SourceGraphic" in2="back" mode="normal"/></filter></defs><mask height="28.89502" id="SVGID_46_" maskUnits="userSpaceOnUse" width="30.27832" x="302.318359" y="162.655762"><g filter="url(#Adobe_OpacityMaskFilter_10_)"><defs><filter filterUnits="userSpaceOnUse" height="28.89502" id="Adobe_OpacityMaskFilter_11_" width="30.27832" x="302.318359" y="162.655762"><feFlood result="back" style="flood-color:white;flood-opacity:1"/><feBlend in="SourceGraphic" in2="back" mode="normal"/></filter></defs><mask height="28.89502" id="SVGID_46_" maskUnits="userSpaceOnUse" width="30.27832" x="302.318359" y="162.655762"><g filter="url(#Adobe_OpacityMaskFilter_11_)"/></mask><linearGradient gradientUnits="userSpaceOnUse" id="SVGID_47_" x1="330.347656" x2="302.774017" y1="191.127441" y2="163.553802"><stop offset="0" style="stop-color:#FFFFFF"/><stop offset="1" style="stop-color:#000000"/></linearGradient><path d="M329.65918,166.831055l-1.325195-0.229004      c-0.279297,0-0.511719-0.058105-0.71582-0.151855c-2.922852-0.611816-14.498047-2.945312-25.299805-3.794434v24.492188      c8.857422,0.807617,20.038086,3.005371,26.015625,4.262695c3.046875,0.615723,3.996094-0.907715,4.262695-2.372559v-16.64209      C332.59668,172.395996,332.556641,167.898438,329.65918,166.831055z" fill="url(#SVGID_47_)" mask="url(#SVGID_46_)"/></g></mask><linearGradient gradientUnits="userSpaceOnUse" id="SVGID_48_" x1="330.347656" x2="302.774017" y1="191.127441" y2="163.553802"><stop offset="0" style="stop-color:#808080"/><stop offset="1" style="stop-color:#FFFFFF"/></linearGradient><path d="M329.65918,166.831055l-1.325195-0.229004c-0.279297,0-0.511719-0.058105-0.71582-0.151855    c-2.922852-0.611816-14.498047-2.945312-25.299805-3.794434v24.492188c8.857422,0.807617,20.038086,3.005371,26.015625,4.262695    c3.046875,0.615723,3.996094-0.907715,4.262695-2.372559v-16.64209    C332.59668,172.395996,332.556641,167.898438,329.65918,166.831055z" fill="url(#SVGID_48_)"/><linearGradient gradientTransform="matrix(-1 0 0 1 -572.925781 0)" gradientUnits="userSpaceOnUse" id="SVGID_49_" x1="-783.125977" x2="-596.210754" y1="233.320801" y2="216.235321"><stop offset="0" style="stop-color:#404040"/><stop offset="0.309091" style="stop-color:#808080"/><stop offset="0.448485" style="stop-color:#737373"/><stop offset="0.569697" style="stop-color:#666666"/><stop offset="0.624242" style="stop-color:#808080"/><stop offset="0.666667" style="stop-color:#B3B3B3"/><stop offset="0.763636" style="stop-color:#E6E6E6"/><stop offset="0.878788" style="stop-color:#999999"/><stop offset="1" style="stop-color:#333333"/></linearGradient><path d="M30.003418,131.90332c7.908691,6.510254,27.855469,10.789062,48.468262,16.300293    c15.53418,3.987793,34.790039,7.759277,57.592285,7.759277c4.695312,0,9.298828-0.125,13.76123-0.366699    c27.74707-1.506836,50.424316-7.483887,59.856445-15.400879v156.68457c0,7.292969-22.560547,18.623047-64.917969,20.928711    c-4.695312,0.242188-9.532227,0.382812-14.469238,0.382812c-25.740723,0-46.811523-4.65332-60.380859-8.141602    c-3.696777-0.982422-7.375977-1.930664-10.980957-2.863281c-18.464844-4.770508-41.441895-10.706055-41.441895-17.083008    L30.003418,131.90332z" fill="url(#SVGID_49_)"/><defs><filter filterUnits="userSpaceOnUse" height="170.181641" id="Adobe_OpacityMaskFilter_12_" width="58.083984" x="136.458984" y="147.924805"><feFlood result="back" style="flood-color:white;flood-opacity:1"/><feBlend in="SourceGraphic" in2="back" mode="normal"/></filter></defs><mask height="170.181641" id="SVGID_50_" maskUnits="userSpaceOnUse" width="58.083984" x="136.458984" y="147.924805"><g filter="url(#Adobe_OpacityMaskFilter_12_)"><defs><filter filterUnits="userSpaceOnUse" height="170.181641" id="Adobe_OpacityMaskFilter_13_" width="58.083984" x="136.458984" y="147.924805"><feFlood result="back" style="flood-color:white;flood-opacity:1"/><feBlend in="SourceGraphic" in2="back" mode="normal"/></filter></defs><mask height="170.181641" id="SVGID_50_" maskUnits="userSpaceOnUse" width="58.083984" x="136.458984" y="147.924805"><g filter="url(#Adobe_OpacityMaskFilter_13_)"/></mask><linearGradient gradientUnits="userSpaceOnUse" id="SVGID_51_" x1="136.458984" x2="194.542969" y1="233.015625" y2="233.015625"><stop offset="0" style="stop-color:#000000"/><stop offset="0.345455" style="stop-color:#FFFFFF"/><stop offset="0.769697" style="stop-color:#FFFFFF"/><stop offset="1" style="stop-color:#000000"/></linearGradient><path d="M136.458984,318.106445      c2.807617-0.064453,5.586426-0.158203,8.304688-0.297852c22.135742-1.205078,38.852539-4.875977,49.779297-9.144531V147.924805      c-11.447266,3.933594-27.043945,6.711914-44.717773,7.671387c-4.335449,0.235352-8.808105,0.354004-13.366211,0.362305      V318.106445z" fill="url(#SVGID_51_)" mask="url(#SVGID_50_)"/></g></mask><linearGradient gradientUnits="userSpaceOnUse" id="SVGID_52_" x1="136.458984" x2="194.542969" y1="233.015625" y2="233.015625"><stop offset="0" style="stop-color:#FAFBFF"/><stop offset="0.345455" style="stop-color:#FFFFFF"/><stop offset="0.769697" style="stop-color:#FFFFFF"/><stop offset="1" style="stop-color:#FFFFFF"/></linearGradient><path d="M136.458984,318.106445c2.807617-0.064453,5.586426-0.158203,8.304688-0.297852    c22.135742-1.205078,38.852539-4.875977,49.779297-9.144531V147.924805    c-11.447266,3.933594-27.043945,6.711914-44.717773,7.671387c-4.335449,0.235352-8.808105,0.354004-13.366211,0.362305V318.106445    z" fill="url(#SVGID_52_)" opacity="0.2"/><linearGradient gradientTransform="matrix(-1 0 0 1 -572.925781 0)" gradientUnits="userSpaceOnUse" id="SVGID_53_" x1="-787.344727" x2="-599.274414" y1="147.379395" y2="147.379395"><stop offset="0.036364" style="stop-color:#1A1A1A"/><stop offset="0.090909" style="stop-color:#333333"/><stop offset="0.254545" style="stop-color:#333333"/><stop offset="0.309091" style="stop-color:#262626"/><stop offset="0.533333" style="stop-color:#141414"/><stop offset="0.587879" style="stop-color:#333333"/><stop offset="0.666667" style="stop-color:#808080"/><stop offset="0.763636" style="stop-color:#B3B3B3"/><stop offset="0.842424" style="stop-color:#404040"/><stop offset="1" style="stop-color:#1C1B1F"/></linearGradient><path d="M28.171875,123.87793c0,9.282715,25.283203,13.76123,51.564941,20.09668    c15.376465,3.546387,34.44873,6.909668,57.018066,6.909668c4.65332,0,9.20752-0.117676,13.63623-0.333008    c36.355469-1.78125,63.902832-10.51416,63.902832-21.020508l0.125,17.382812c0,11.796387-27.872559,21.603027-64.59375,23.601074    c-4.462402,0.241699-9.065918,0.366211-13.76123,0.366211c-22.802246,0-42.058105-3.770996-57.592285-7.758789    c-26.532227-7.092773-52.123047-12.096191-52.123047-22.510742L28.171875,123.87793z" fill="url(#SVGID_53_)"/><linearGradient gradientTransform="matrix(-1 0 0 1 -572.925781 0)" gradientUnits="userSpaceOnUse" id="SVGID_54_" x1="-787.269531" x2="-600.456543" y1="140.578125" y2="140.578125"><stop offset="0.036364" style="stop-color:#1A1A1A"/><stop offset="0.090909" style="stop-color:#333333"/><stop offset="0.254545" style="stop-color:#333333"/><stop offset="0.309091" style="stop-color:#262626"/><stop offset="0.533333" style="stop-color:#141414"/><stop offset="0.587879" style="stop-color:#333333"/><stop offset="0.666667" style="stop-color:#808080"/><stop offset="0.763636" style="stop-color:#B3B3B3"/><stop offset="0.842424" style="stop-color:#404040"/><stop offset="1" style="stop-color:#1C1B1F"/></linearGradient><path d="M150.690918,155.879395c-4.470703,0.215332-9.074219,0.333008-13.769531,0.333008    c-22.793945,0-42.058105-3.363281-57.592285-6.909668c-24.941895-5.952637-48.992676-10.272949-51.79834-18.473145    l0.641113-5.885742c0,9.282227,25.283203,13.76123,51.564941,20.096191c15.376465,3.546875,34.44873,6.910156,57.018066,6.910156    c4.65332,0,9.20752-0.117676,13.63623-0.333008c36.355469-1.781738,63.902832-10.514648,63.902832-21.020996l0.049805,7.351074    C209.506836,147.037109,183.741211,154.272461,150.690918,155.879395z" fill="url(#SVGID_54_)" opacity="0.8"/><path d="M78.47168,158.859863c15.53418,3.987793,34.790039,7.758789,57.592285,7.758789    c4.695312,0,9.298828-0.125,13.76123-0.366211c36.513184-1.989746,64.251953-11.696777,64.560059-23.401855l0.033691,4.062988    c0,11.796387-27.872559,21.603027-64.59375,23.601074c-4.462402,0.241699-9.065918,0.366211-13.76123,0.366211    c-22.802246,0-42.058105-3.770996-57.592285-7.758789c-26.532227-7.092773-52.123047-12.096191-52.123047-22.510742    l0.274902-2.505859C29.345703,147.346191,53.47998,152.174805,78.47168,158.859863z" fill="#808080" opacity="0.5"/><linearGradient gradientTransform="matrix(-1 0 0 1 -572.925781 0)" gradientUnits="userSpaceOnUse" id="SVGID_55_" x1="-788.126953" x2="-694.246094" y1="120.022949" y2="120.022949"><stop offset="0.036364" style="stop-color:#1A1A1A"/><stop offset="0.151515" style="stop-color:#333333"/><stop offset="0.283133" style="stop-color:#141414"/><stop offset="0.587879" style="stop-color:#333333"/><stop offset="0.666667" style="stop-color:#808080"/><stop offset="0.769697" style="stop-color:#B3B3B3"/><stop offset="0.836364" style="stop-color:#676767"/><stop offset="0.951515" style="stop-color:#1C1B1F"/></linearGradient><path d="M168.256836,110.508301c20.870605,0,38.802734-1.731934,46.944336-4.230469v20.331055    c0,3.954102-21.012207,7.15918-46.944336,7.15918c-25.924316,0-46.936523-3.205078-46.936523-7.15918v-20.331055    C129.461914,108.776367,147.394043,110.508301,168.256836,110.508301z" fill="url(#SVGID_55_)"/><linearGradient gradientUnits="userSpaceOnUse" id="SVGID_56_" x1="121.320312" x2="214.293945" y1="140.003906" y2="140.003906"><stop offset="0.048485" style="stop-color:#1C1B1F"/><stop offset="0.163636" style="stop-color:#676767"/><stop offset="0.230303" style="stop-color:#B3B3B3"/><stop offset="0.333333" style="stop-color:#808080"/><stop offset="0.412121" style="stop-color:#333333"/><stop offset="0.716867" style="stop-color:#141414"/><stop offset="0.848485" style="stop-color:#333333"/><stop offset="0.963636" style="stop-color:#1A1A1A"/></linearGradient><path d="M121.320312,128.057129v20.32959c0,1.196777,1.935547,2.322754,5.336426,3.313477    c3.29248,0.147949,6.641113,0.25,10.098145,0.25c4.65332,0,9.20752-0.117676,13.63623-0.333008    c36.355469-1.781738,63.902832-10.514648,63.902832-21.020996c0-0.732422-0.147949-1.456543-0.408203-2.17041    c-8.651367,2.297363-25.805176,3.860352-45.628906,3.860352C147.394043,132.286133,129.461914,130.554688,121.320312,128.057129z" fill="url(#SVGID_56_)" opacity="0.4"/><linearGradient gradientUnits="userSpaceOnUse" id="SVGID_57_" x1="235.734863" x2="276.168945" y1="241.291016" y2="241.291016"><stop offset="0.018182" style="stop-color:#1A1A1A"/><stop offset="0.175758" style="stop-color:#4D4D4D"/><stop offset="0.224242" style="stop-color:#808080"/><stop offset="0.315152" style="stop-color:#666666"/><stop offset="0.442424" style="stop-color:#333333"/><stop offset="0.716867" style="stop-color:#141414"/><stop offset="0.848485" style="stop-color:#333333"/><stop offset="0.963636" style="stop-color:#1A1A1A"/></linearGradient><path d="M256.043945,177.008301L256.043945,177.008301c-0.014648,0-0.029297,0-0.043945,0    s-0.029297,0-0.043945,0l0,0c-8.276855-0.006348-15.617188-0.824219-20.221191-2.079102v126.712402    c0,3.322266,9.049316,6.010742,20.221191,6.010742c11.164062,0,20.212891-2.688477,20.212891-6.010742V174.956055    C271.557617,176.196289,264.264648,177.001953,256.043945,177.008301z" fill="url(#SVGID_57_)"/><defs><filter filterUnits="userSpaceOnUse" height="28.89502" id="Adobe_OpacityMaskFilter_14_" width="30.277832" x="179.403809" y="162.655762"><feFlood result="back" style="flood-color:white;flood-opacity:1"/><feBlend in="SourceGraphic" in2="back" mode="normal"/></filter></defs><mask height="28.89502" id="SVGID_58_" maskUnits="userSpaceOnUse" width="30.277832" x="179.403809" y="162.655762"><g filter="url(#Adobe_OpacityMaskFilter_14_)"><defs><filter filterUnits="userSpaceOnUse" height="28.89502" id="Adobe_OpacityMaskFilter_15_" width="30.277832" x="179.403809" y="162.655762"><feFlood result="back" style="flood-color:white;flood-opacity:1"/><feBlend in="SourceGraphic" in2="back" mode="normal"/></filter></defs><mask height="28.89502" id="SVGID_58_" maskUnits="userSpaceOnUse" width="30.277832" x="179.403809" y="162.655762"><g filter="url(#Adobe_OpacityMaskFilter_15_)"/></mask><linearGradient gradientUnits="userSpaceOnUse" id="SVGID_59_" x1="179.713867" x2="209.203918" y1="193.067383" y2="163.577332"><stop offset="0" style="stop-color:#FFFFFF"/><stop offset="1" style="stop-color:#000000"/></linearGradient><path d="M182.342285,166.831055l1.32373-0.229004      c0.278809,0,0.512207-0.058105,0.716309-0.151855c2.921875-0.611816,14.497559-2.945312,25.299316-3.794434v24.492188      c-8.857422,0.807617-20.038086,3.005371-26.015625,4.262695c-3.046875,0.615723-3.996094-0.907715-4.262207-2.372559v-16.64209      C179.403809,172.395996,179.445312,167.898438,182.342285,166.831055z" fill="url(#SVGID_59_)" mask="url(#SVGID_58_)"/></g></mask><linearGradient gradientUnits="userSpaceOnUse" id="SVGID_60_" x1="179.713867" x2="209.203918" y1="193.067383" y2="163.577332"><stop offset="0" style="stop-color:#808080"/><stop offset="1" style="stop-color:#FFFFFF"/></linearGradient><path d="M182.342285,166.831055l1.32373-0.229004c0.278809,0,0.512207-0.058105,0.716309-0.151855    c2.921875-0.611816,14.497559-2.945312,25.299316-3.794434v24.492188c-8.857422,0.807617-20.038086,3.005371-26.015625,4.262695    c-3.046875,0.615723-3.996094-0.907715-4.262207-2.372559v-16.64209    C179.403809,172.395996,179.445312,167.898438,182.342285,166.831055z" fill="url(#SVGID_60_)"/><linearGradient gradientTransform="matrix(-1 0 0 1 -572.925781 0)" gradientUnits="userSpaceOnUse" id="SVGID_61_" x1="-792.822266" x2="-689.550781" y1="93.483398" y2="93.483398"><stop offset="0.036364" style="stop-color:#1A1A1A"/><stop offset="0.151515" style="stop-color:#333333"/><stop offset="0.283133" style="stop-color:#141414"/><stop offset="0.587879" style="stop-color:#333333"/><stop offset="0.666667" style="stop-color:#808080"/><stop offset="0.769697" style="stop-color:#B3B3B3"/><stop offset="0.836364" style="stop-color:#676767"/><stop offset="0.951515" style="stop-color:#1C1B1F"/></linearGradient><path d="M167.065918,81.553711c22.369629,0,41.916504-2.464355,52.830566-6.160645v28.95459    c0,3.996094-23.118652,7.226074-51.639648,7.226074c-28.513184,0-51.631836-3.22998-51.631836-7.226074V76.142578    C127.87207,79.414062,146.253418,81.553711,167.065918,81.553711z" fill="url(#SVGID_61_)"/><linearGradient gradientTransform="matrix(-1 0 0 1 -572.925781 0)" gradientUnits="userSpaceOnUse" id="SVGID_62_" x1="-792.822266" x2="-689.550781" y1="105.82959" y2="105.82959"><stop offset="0.048485" style="stop-color:#1C1B1F"/><stop offset="0.163636" style="stop-color:#676767"/><stop offset="0.230303" style="stop-color:#B3B3B3"/><stop offset="0.333333" style="stop-color:#808080"/><stop offset="0.412121" style="stop-color:#333333"/><stop offset="0.716867" style="stop-color:#141414"/><stop offset="0.848485" style="stop-color:#333333"/><stop offset="0.963636" style="stop-color:#1A1A1A"/></linearGradient><path d="M168.256836,107.311523c28.520996,0,51.639648-3.230469,51.639648-7.226074    v4.262207c0,3.996094-23.118652,7.226074-51.639648,7.226074c-28.513184,0-51.631836-3.22998-51.631836-7.226074v-4.262207    C116.625,104.081055,139.743652,107.311523,168.256836,107.311523z" fill="url(#SVGID_62_)" opacity="0.2"/><linearGradient gradientUnits="userSpaceOnUse" id="SVGID_63_" x1="183.375" x2="328.129242" y1="119.942383" y2="119.942383"><stop offset="0" style="stop-color:#212121"/><stop offset="0.121212" style="stop-color:#141414"/><stop offset="0.242424" style="stop-color:#1A1A1A"/><stop offset="0.324236" style="stop-color:#333333"/><stop offset="0.381818" style="stop-color:#676767"/><stop offset="0.398816" style="stop-color:#808080"/><stop offset="0.454545" style="stop-color:#666666"/><stop offset="0.490909" style="stop-color:#333333"/><stop offset="0.574677" style="stop-color:#141414"/><stop offset="0.622555" style="stop-color:#333333"/><stop offset="0.670434" style="stop-color:#202020"/><stop offset="0.733333" style="stop-color:#141414"/><stop offset="0.878788" style="stop-color:#262626"/><stop offset="1" style="stop-color:#333333"/></linearGradient><path d="M281.28125,108.260254c0,2.82666-11.347656,5.123047-25.28125,5.128418    c-13.931641-0.005371-25.280762-2.301758-25.280762-5.128418c-4.570801-0.982422-9.82373-1.515137-15.518066-1.456543v19.896484    c5.710938-0.116699,10.938965,0.258301,15.518066,1.257324c0,2.824219,11.326172,5.117676,25.236816,5.12793l0,0    c0.014648,0,0.029297,0,0.043945,0s0.029297,0,0.043945,0l0,0c13.913086-0.010254,25.237305-2.303711,25.237305-5.12793    c4.578125-0.999023,9.806641-1.374023,15.517578-1.257324v-19.896484    C291.104492,106.745117,285.851562,107.277832,281.28125,108.260254z" fill="url(#SVGID_63_)"/><path d="M281.28125,123.694824c0,2.82666-11.347656,5.124023-25.28125,5.128418    c-13.931641-0.004395-25.280762-2.301758-25.280762-5.128418c-4.579102-0.999023-9.807129-1.373535-15.518066-1.256836v4.262207    c5.710938-0.116699,10.938965,0.258301,15.518066,1.257324c0,2.824219,11.326172,5.117676,25.236816,5.12793l0,0    c0.014648,0,0.029297,0,0.043945,0s0.029297,0,0.043945,0l0,0c13.913086-0.010254,25.237305-2.303711,25.237305-5.12793    c4.578125-0.999023,9.806641-1.374023,15.517578-1.257324v-4.262207    C291.087891,122.321289,285.859375,122.695801,281.28125,123.694824z" fill="#808080" opacity="0.5"/><linearGradient gradientTransform="matrix(-1 0 0 1 -572.925781 0)" gradientUnits="userSpaceOnUse" id="SVGID_64_" x1="-788.126953" x2="-694.246094" y1="128.057129" y2="128.057129"><stop offset="0.048485" style="stop-color:#1C1B1F"/><stop offset="0.163636" style="stop-color:#676767"/><stop offset="0.230303" style="stop-color:#B3B3B3"/><stop offset="0.333333" style="stop-color:#808080"/><stop offset="0.412121" style="stop-color:#333333"/><stop offset="0.716867" style="stop-color:#141414"/><stop offset="0.848485" style="stop-color:#333333"/><stop offset="0.963636" style="stop-color:#1A1A1A"/></linearGradient><path d="M168.256836,129.505859c25.932129,0,46.944336-3.205078,46.944336-7.159668    v4.262695c0,3.954102-21.012207,7.15918-46.944336,7.15918c-25.924316,0-46.936523-3.205078-46.936523-7.15918v-4.262695    C121.320312,126.300781,142.33252,129.505859,168.256836,129.505859z" fill="url(#SVGID_64_)" opacity="0.2"/><linearGradient gradientTransform="matrix(-1 0 0 1 -572.925781 0)" gradientUnits="userSpaceOnUse" id="SVGID_65_" x1="-916.69873" x2="-916.69873" y1="3.677734" y2="14.067283"><stop offset="0" style="stop-color:#121212"/><stop offset="1" style="stop-color:#333333"/></linearGradient><path d="M296.832031,9.334473c0,3.296387,21.012695,5.96875,46.936523,5.96875    c25.932617,0,46.944336-2.672363,46.944336-5.96875c0-3.296875-21.011719-5.969238-46.944336-5.969238    C317.844727,3.365234,296.832031,6.037598,296.832031,9.334473z" fill="url(#SVGID_65_)"/><linearGradient gradientTransform="matrix(-1 0 0 1 -572.925781 0)" gradientUnits="userSpaceOnUse" id="SVGID_66_" x1="-915.508789" x2="-915.508789" y1="56.900391" y2="37.682693"><stop offset="0" style="stop-color:#333333"/><stop offset="1" style="stop-color:#121212"/></linearGradient><path d="M286.75293,47.820801c0,5.244629,24.993164,9.494629,55.825195,9.494629    c30.839844,0,55.835938-4.25,55.835938-9.494629c0-5.246582-24.996094-9.494629-55.835938-9.494629    C311.746094,38.326172,286.75293,42.574219,286.75293,47.820801z" fill="url(#SVGID_66_)"/><linearGradient gradientTransform="matrix(-1 0 0 1 -572.925781 0)" gradientUnits="userSpaceOnUse" id="SVGID_67_" x1="-971.339844" x2="-859.678711" y1="65.467773" y2="65.467773"><stop offset="0" style="stop-color:#333333"/><stop offset="0.309091" style="stop-color:#808080"/><stop offset="0.448485" style="stop-color:#737373"/><stop offset="0.569697" style="stop-color:#666666"/><stop offset="0.624242" style="stop-color:#808080"/><stop offset="0.666667" style="stop-color:#B3B3B3"/><stop offset="0.763636" style="stop-color:#E6E6E6"/><stop offset="0.878788" style="stop-color:#999999"/><stop offset="1" style="stop-color:#333333"/></linearGradient><path d="M342.578125,57.31543c30.839844,0,55.835938-4.25,55.835938-9.494629v24.850098    c0,5.771484-24.996094,10.443848-55.835938,10.443848c-30.832031,0-55.825195-4.672363-55.825195-10.443848V47.820801    C286.75293,53.06543,311.746094,57.31543,342.578125,57.31543z" fill="url(#SVGID_67_)"/><linearGradient gradientUnits="userSpaceOnUse" id="SVGID_68_" x1="286.75293" x2="398.414062" y1="75.392578" y2="75.392578"><stop offset="0.036364" style="stop-color:#1A1A1A"/><stop offset="0.151515" style="stop-color:#333333"/><stop offset="0.283133" style="stop-color:#141414"/><stop offset="0.587879" style="stop-color:#333333"/><stop offset="0.666667" style="stop-color:#808080"/><stop offset="0.769697" style="stop-color:#B3B3B3"/><stop offset="0.836364" style="stop-color:#676767"/><stop offset="0.951515" style="stop-color:#1C1B1F"/></linearGradient><path d="M342.578125,78.484863c-30.832031,0-55.825195-4.67334-55.825195-10.446777    v4.262695c0,5.772949,24.993164,10.446777,55.825195,10.446777c30.839844,0,55.835938-4.673828,55.835938-10.446777v-4.262695    C398.414062,73.811523,373.417969,78.484863,342.578125,78.484863z" fill="url(#SVGID_68_)" opacity="0.3"/><linearGradient gradientTransform="matrix(-1 0 0 1 -572.925781 0)" gradientUnits="userSpaceOnUse" id="SVGID_69_" x1="-971.339844" x2="-859.678711" y1="54.293457" y2="54.293457"><stop offset="0.048485" style="stop-color:#1C1B1F"/><stop offset="0.163636" style="stop-color:#676767"/><stop offset="0.230303" style="stop-color:#B3B3B3"/><stop offset="0.333333" style="stop-color:#808080"/><stop offset="0.412121" style="stop-color:#333333"/><stop offset="0.716867" style="stop-color:#141414"/><stop offset="0.848485" style="stop-color:#333333"/><stop offset="0.963636" style="stop-color:#1A1A1A"/></linearGradient><path d="M342.578125,57.31543c30.839844,0,55.835938-4.25,55.835938-9.494629v3.450684    c0,5.249023-24.996094,9.494629-55.835938,9.494629c-30.832031,0-55.825195-4.245605-55.825195-9.494629v-3.450684    C286.75293,53.06543,311.746094,57.31543,342.578125,57.31543z" fill="url(#SVGID_69_)" opacity="0.8"/><linearGradient gradientTransform="matrix(-1 0 0 1 -572.925781 0)" gradientUnits="userSpaceOnUse" id="SVGID_70_" x1="-963.638672" x2="-869.757812" y1="31.162109" y2="31.162109"><stop offset="0.036364" style="stop-color:#1A1A1A"/><stop offset="0.151515" style="stop-color:#333333"/><stop offset="0.283133" style="stop-color:#141414"/><stop offset="0.587879" style="stop-color:#333333"/><stop offset="0.666667" style="stop-color:#808080"/><stop offset="0.769697" style="stop-color:#B3B3B3"/><stop offset="0.836364" style="stop-color:#676767"/><stop offset="0.951515" style="stop-color:#1C1B1F"/></linearGradient><path d="M343.768555,14.237793c25.932617,0,46.944336-2.672363,46.944336-5.969238v39.077637    c0,3.712891-21.011719,6.709961-46.944336,6.709961c-25.923828,0-46.936523-2.99707-46.936523-6.709961V8.268555    C296.832031,11.56543,317.844727,14.237793,343.768555,14.237793z" fill="url(#SVGID_70_)"/><linearGradient gradientTransform="matrix(-1 0 0 1 -572.925781 0)" gradientUnits="userSpaceOnUse" id="SVGID_71_" x1="-963.638672" x2="-869.757812" y1="48.570312" y2="48.570312"><stop offset="0.048485" style="stop-color:#1C1B1F"/><stop offset="0.163636" style="stop-color:#676767"/><stop offset="0.230303" style="stop-color:#B3B3B3"/><stop offset="0.333333" style="stop-color:#808080"/><stop offset="0.412121" style="stop-color:#333333"/><stop offset="0.716867" style="stop-color:#141414"/><stop offset="0.848485" style="stop-color:#333333"/><stop offset="0.963636" style="stop-color:#1A1A1A"/></linearGradient><path d="M343.768555,49.793945c25.932617,0,46.944336-2.99707,46.944336-6.709961v4.262207    c0,3.712891-21.011719,6.709961-46.944336,6.709961c-25.923828,0-46.936523-2.99707-46.936523-6.709961v-4.262207    C296.832031,46.796875,317.844727,49.793945,343.768555,49.793945z" fill="url(#SVGID_71_)" opacity="0.2"/><linearGradient gradientTransform="matrix(-1 0 0 1 -572.925781 0)" gradientUnits="userSpaceOnUse" id="SVGID_72_" x1="-963.638672" x2="-869.757812" y1="13.384277" y2="13.384277"><stop offset="0.048485" style="stop-color:#1C1B1F"/><stop offset="0.163636" style="stop-color:#676767"/><stop offset="0.230303" style="stop-color:#B3B3B3"/><stop offset="0.333333" style="stop-color:#808080"/><stop offset="0.412121" style="stop-color:#333333"/><stop offset="0.716867" style="stop-color:#141414"/><stop offset="0.848485" style="stop-color:#333333"/><stop offset="0.963636" style="stop-color:#1A1A1A"/></linearGradient><path d="M343.768555,14.237793c25.932617,0,46.944336-2.672363,46.944336-5.969238v4.262695    c0,3.296875-21.011719,5.96875-46.944336,5.96875c-25.923828,0-46.936523-2.671875-46.936523-5.96875V8.268555    C296.832031,11.56543,317.844727,14.237793,343.768555,14.237793z" fill="url(#SVGID_72_)" opacity="0.5"/><linearGradient gradientTransform="matrix(-1 0 0 1 -572.925781 0)" gradientUnits="userSpaceOnUse" id="SVGID_73_" x1="-963.638672" x2="-869.757812" y1="120.022949" y2="120.022949"><stop offset="0.036364" style="stop-color:#1A1A1A"/><stop offset="0.151515" style="stop-color:#333333"/><stop offset="0.283133" style="stop-color:#141414"/><stop offset="0.587879" style="stop-color:#333333"/><stop offset="0.666667" style="stop-color:#808080"/><stop offset="0.769697" style="stop-color:#B3B3B3"/><stop offset="0.836364" style="stop-color:#676767"/><stop offset="0.951515" style="stop-color:#1C1B1F"/></linearGradient><path d="M343.768555,110.508301c20.870117,0,38.802734-1.731934,46.944336-4.230469v20.331055    c0,3.954102-21.011719,7.15918-46.944336,7.15918c-25.923828,0-46.936523-3.205078-46.936523-7.15918v-20.331055    C304.973633,108.776367,322.90625,110.508301,343.768555,110.508301z" fill="url(#SVGID_73_)"/><linearGradient gradientUnits="userSpaceOnUse" id="SVGID_74_" x1="297.706055" x2="390.712891" y1="139.77002" y2="139.77002"><stop offset="0.048485" style="stop-color:#1C1B1F"/><stop offset="0.163636" style="stop-color:#676767"/><stop offset="0.230303" style="stop-color:#B3B3B3"/><stop offset="0.333333" style="stop-color:#808080"/><stop offset="0.412121" style="stop-color:#333333"/><stop offset="0.716867" style="stop-color:#141414"/><stop offset="0.848485" style="stop-color:#333333"/><stop offset="0.963636" style="stop-color:#1A1A1A"/></linearGradient><path d="M390.712891,147.920898v-20.331055    c-8.141602,2.498535-26.074219,4.230469-46.944336,4.230469c-19.713867,0-36.800781-1.548828-45.492188-3.825684    c-0.375,0.853516-0.570312,1.721191-0.570312,2.601562c0,10.506348,27.547852,19.239258,63.90332,21.020996    c4.428711,0.215332,8.982422,0.333008,13.635742,0.333008c2.704102,0,5.348633-0.054199,7.952148-0.145996    C387.947266,150.68457,390.712891,149.352539,390.712891,147.920898z" fill="url(#SVGID_74_)" opacity="0.4"/><linearGradient gradientTransform="matrix(-1 0 0 1 -572.925781 0)" gradientUnits="userSpaceOnUse" id="SVGID_75_" x1="-968.333984" x2="-865.0625" y1="93.483398" y2="93.483398"><stop offset="0.036364" style="stop-color:#1A1A1A"/><stop offset="0.151515" style="stop-color:#333333"/><stop offset="0.283133" style="stop-color:#141414"/><stop offset="0.587879" style="stop-color:#333333"/><stop offset="0.666667" style="stop-color:#808080"/><stop offset="0.769697" style="stop-color:#B3B3B3"/><stop offset="0.836364" style="stop-color:#676767"/><stop offset="0.951515" style="stop-color:#1C1B1F"/></linearGradient><path d="M342.578125,81.553711c22.369141,0,41.916016-2.464355,52.830078-6.160645v28.95459    c0,3.996094-23.118164,7.226074-51.639648,7.226074c-28.513672,0-51.631836-3.22998-51.631836-7.226074V76.142578    C303.383789,79.414062,321.765625,81.553711,342.578125,81.553711z" fill="url(#SVGID_75_)"/><linearGradient gradientTransform="matrix(-1 0 0 1 -572.925781 0)" gradientUnits="userSpaceOnUse" id="SVGID_76_" x1="-968.333984" x2="-865.0625" y1="105.82959" y2="105.82959"><stop offset="0.048485" style="stop-color:#1C1B1F"/><stop offset="0.163636" style="stop-color:#676767"/><stop offset="0.230303" style="stop-color:#B3B3B3"/><stop offset="0.333333" style="stop-color:#808080"/><stop offset="0.412121" style="stop-color:#333333"/><stop offset="0.716867" style="stop-color:#141414"/><stop offset="0.848485" style="stop-color:#333333"/><stop offset="0.963636" style="stop-color:#1A1A1A"/></linearGradient><path d="M343.768555,107.311523c28.521484,0,51.639648-3.230469,51.639648-7.226074    v4.262207c0,3.996094-23.118164,7.226074-51.639648,7.226074c-28.513672,0-51.631836-3.22998-51.631836-7.226074v-4.262207    C292.136719,104.081055,315.254883,107.311523,343.768555,107.311523z" fill="url(#SVGID_76_)" opacity="0.2"/><linearGradient gradientTransform="matrix(-1 0 0 1 -572.925781 0)" gradientUnits="userSpaceOnUse" id="SVGID_77_" x1="-963.638672" x2="-869.757812" y1="128.057129" y2="128.057129"><stop offset="0.048485" style="stop-color:#1C1B1F"/><stop offset="0.163636" style="stop-color:#676767"/><stop offset="0.230303" style="stop-color:#B3B3B3"/><stop offset="0.333333" style="stop-color:#808080"/><stop offset="0.412121" style="stop-color:#333333"/><stop offset="0.716867" style="stop-color:#141414"/><stop offset="0.848485" style="stop-color:#333333"/><stop offset="0.963636" style="stop-color:#1A1A1A"/></linearGradient><path d="M343.768555,129.505859c25.932617,0,46.944336-3.205078,46.944336-7.159668    v4.262695c0,3.954102-21.011719,7.15918-46.944336,7.15918c-25.923828,0-46.936523-3.205078-46.936523-7.15918v-4.262695    C296.832031,126.300781,317.844727,129.505859,343.768555,129.505859z" fill="url(#SVGID_77_)" opacity="0.2"/><linearGradient gradientUnits="userSpaceOnUse" id="SVGID_78_" x1="183.552246" x2="328.476196" y1="112.173828" y2="112.173828"><stop offset="0" style="stop-color:#212121"/><stop offset="0.121212" style="stop-color:#141414"/><stop offset="0.242424" style="stop-color:#1A1A1A"/><stop offset="0.324236" style="stop-color:#333333"/><stop offset="0.373035" style="stop-color:#676767"/><stop offset="0.398816" style="stop-color:#B3B3B3"/><stop offset="0.454545" style="stop-color:#808080"/><stop offset="0.490909" style="stop-color:#333333"/><stop offset="0.574677" style="stop-color:#141414"/><stop offset="0.622555" style="stop-color:#333333"/><stop offset="0.670434" style="stop-color:#202020"/><stop offset="0.733333" style="stop-color:#141414"/><stop offset="0.878788" style="stop-color:#262626"/><stop offset="1" style="stop-color:#333333"/></linearGradient><path d="M281.28125,108.260254c0,2.818359-11.405273,5.107422-25.28125,5.128418    c-13.873535-0.020996-25.280762-2.310059-25.280762-5.128418c-4.591309-0.982422-9.786133-1.621094-15.518066-1.558594v4.262207    c5.731934-0.0625,10.926758,0.57666,15.518066,1.559082c0,2.815918,11.384277,5.101074,25.236816,5.125977v0.001953    c0.014648,0,0.029297,0,0.043945,0s0.029297,0,0.043945,0v-0.001953c13.854492-0.024902,25.237305-2.310059,25.237305-5.125977    c4.59082-0.982422,9.788086-1.621582,15.517578-1.559082v-4.262207    C291.069336,106.63916,285.87207,107.277832,281.28125,108.260254z" fill="url(#SVGID_78_)" opacity="0.8"/><linearGradient gradientUnits="userSpaceOnUse" id="SVGID_79_" x1="183.666016" x2="328.333984" y1="177.102539" y2="177.102539"><stop offset="0" style="stop-color:#212121"/><stop offset="0.121212" style="stop-color:#141414"/><stop offset="0.242424" style="stop-color:#1A1A1A"/><stop offset="0.324236" style="stop-color:#333333"/><stop offset="0.381818" style="stop-color:#676767"/><stop offset="0.398816" style="stop-color:#808080"/><stop offset="0.454545" style="stop-color:#666666"/><stop offset="0.490909" style="stop-color:#333333"/><stop offset="0.574677" style="stop-color:#141414"/><stop offset="0.622555" style="stop-color:#333333"/><stop offset="0.670434" style="stop-color:#202020"/><stop offset="0.733333" style="stop-color:#141414"/><stop offset="0.878788" style="stop-color:#262626"/><stop offset="1" style="stop-color:#333333"/></linearGradient><path d="M324.027344,167.78418h-0.001953c-5.556641-1.069824-15.569336-2.80127-24.462891-3.280273    c-6.859375-0.366211-12.953125,0.375-18.28125,1.515137c0,2.82666-11.347656,5.124023-25.28125,5.128418    c-13.931641-0.004395-25.280762-2.301758-25.280762-5.128418c-5.328125-1.140137-11.421875-1.881348-18.281738-1.515137    c-8.216797,0.441406-17.401367,1.95459-23.135254,3.026367c-0.241699,0.099609-0.522461,0.17041-0.89502,0.17041    c-0.740723,0.141602-1.434082,0.276855-2.022949,0.393555c-2.572266,1.113281-2.711914,4.28125-2.718262,4.76416v14.681152    c0,0,15.625977-3.430176,28.771484-4.145996c6.884766-0.374512,12.945312,0.108398,18.281738,1.273438    c0,2.824707,11.326172,5.118164,25.236816,5.128418l0,0c0.014648,0,0.029297,0,0.043945,0s0.029297,0,0.043945,0l0,0    c13.913086-0.010254,25.237305-2.303711,25.237305-5.128418c5.335938-1.165039,11.396484-1.647949,18.28125-1.273438    c13.145508,0.71582,28.771484,4.145996,28.771484,4.145996v-14.618652    C328.333984,172.920898,327.726562,168.46875,324.027344,167.78418z" fill="url(#SVGID_79_)"/><path d="M281.28125,180.404785c0,2.824219-11.324219,5.117676-25.237305,5.128418l0,0    c-0.014648,0-0.029297,0-0.043945,0s-0.029297,0-0.043945,0l0,0c-13.910645-0.010742-25.236816-2.304199-25.236816-5.128418    c-5.336426-1.165527-11.396973-1.648438-18.281738-1.273926c-13.145508,0.716309-28.771484,4.145996-28.771484,4.145996v4.262695    c0,0,15.625977-3.430176,28.771484-4.145996c6.884766-0.374512,12.945312,0.108398,18.281738,1.273438    c0,2.824707,11.326172,5.118164,25.236816,5.128418l0,0c0.014648,0,0.029297,0,0.043945,0s0.029297,0,0.043945,0l0,0    c13.913086-0.010254,25.237305-2.303711,25.237305-5.128418c5.335938-1.165039,11.396484-1.647949,18.28125-1.273438    c13.145508,0.71582,28.771484,4.145996,28.771484,4.145996v-4.262695c0,0-15.625977-3.429688-28.771484-4.145996    C292.677734,178.756348,286.617188,179.239258,281.28125,180.404785z" fill="#808080" opacity="0.5"/><linearGradient gradientUnits="userSpaceOnUse" id="SVGID_80_" x1="183.666016" x2="328.333984" y1="169.909668" y2="169.909668"><stop offset="0" style="stop-color:#212121"/><stop offset="0.121212" style="stop-color:#141414"/><stop offset="0.242424" style="stop-color:#1A1A1A"/><stop offset="0.324236" style="stop-color:#333333"/><stop offset="0.373035" style="stop-color:#676767"/><stop offset="0.398816" style="stop-color:#B3B3B3"/><stop offset="0.454545" style="stop-color:#808080"/><stop offset="0.490909" style="stop-color:#333333"/><stop offset="0.574677" style="stop-color:#141414"/><stop offset="0.622555" style="stop-color:#333333"/><stop offset="0.670434" style="stop-color:#202020"/><stop offset="0.733333" style="stop-color:#141414"/><stop offset="0.878788" style="stop-color:#262626"/><stop offset="1" style="stop-color:#333333"/></linearGradient><path d="M324.027344,167.78418h-0.001953    c-5.556641-1.069824-15.569336-2.80127-24.462891-3.280273c-6.859375-0.366211-12.953125,0.375-18.28125,1.515137    c0,2.818359-11.405273,5.107422-25.28125,5.128418c-13.873535-0.020996-25.280762-2.310059-25.280762-5.128418    c-5.328125-1.140137-11.421875-1.881348-18.281738-1.515137c-8.216797,0.441406-17.401367,1.95459-23.135254,3.026367    c-0.241699,0.099609-0.522461,0.17041-0.89502,0.17041c-0.740723,0.141602-1.434082,0.276855-2.022949,0.393555    c-2.572266,1.113281-2.711914,4.28125-2.718262,4.76416v0.0625c0,0,15.625977-3.446777,28.771484-4.154297    c6.859863-0.366211,12.953613,0.374512,18.281738,1.515137c0,2.815918,11.384277,5.101074,25.236816,5.12793l0,0    c0.014648,0,0.029297,0,0.043945,0s0.029297,0,0.043945,0l0,0c13.854492-0.026855,25.237305-2.312012,25.237305-5.12793    c5.328125-1.140625,11.421875-1.881348,18.28125-1.515137c13.145508,0.70752,28.771484,4.154297,28.771484,4.154297    S327.726562,168.46875,324.027344,167.78418z" fill="url(#SVGID_80_)" opacity="0.8"/><linearGradient gradientUnits="userSpaceOnUse" id="SVGID_81_" x1="10.178711" x2="209.326721" y1="315.916992" y2="336.402313"><stop offset="0" style="stop-color:#1A1A1A"/><stop offset="0.2" style="stop-color:#262626"/><stop offset="0.254545" style="stop-color:#808080"/><stop offset="0.339394" style="stop-color:#666666"/><stop offset="0.406061" style="stop-color:#333333"/><stop offset="0.490909" style="stop-color:#141414"/><stop offset="0.690909" style="stop-color:#1A1A1A"/><stop offset="1" style="stop-color:#121212"/></linearGradient><path d="M209.681641,304.134766c-9.842285,8.662109-34.571289,15.224609-64.693359,16.862305    c-4.770508,0.25-9.682129,0.391602-14.693848,0.391602c-24.342285,0-44.896484-4.020508-61.47998-8.283203    c-28.330078-7.567383-55.769043-12.945312-55.769043-24.067383L9.482422,322.6875    c0,12.603516,27.813477,18.706055,56.717773,27.289062c16.924805,4.829102,37.895508,9.382812,62.737305,9.382812    c5.111816,0,10.123047-0.150391,14.993652-0.441406c30.848145-1.865234,55.891602-9.351562,65.750488-19.228516V304.134766z" fill="url(#SVGID_81_)"/><path d="M128.9375,355.09668c-24.841797,0-45.8125-4.553711-62.737305-9.381836    c-27.376465-8.129883-53.758301-14.036133-56.472656-25.347656L9.482422,322.6875    c0,12.603516,27.813477,18.706055,56.717773,27.289062c16.924805,4.829102,37.895508,9.382812,62.737305,9.382812    c5.111816,0,10.123047-0.150391,14.993652-0.441406c30.848145-1.865234,55.891602-9.351562,65.750488-19.228516v-4.262695    c-9.858887,9.87793-34.902344,17.364258-65.750488,19.228516C139.060547,354.947266,134.049316,355.09668,128.9375,355.09668z" fill="#808080" opacity="0.5"/><linearGradient gradientUnits="userSpaceOnUse" id="SVGID_82_" x1="11.984375" x2="207.870834" y1="300.291992" y2="320.441803"><stop offset="0" style="stop-color:#1A1A1A"/><stop offset="0.2" style="stop-color:#262626"/><stop offset="0.254545" style="stop-color:#808080"/><stop offset="0.339394" style="stop-color:#666666"/><stop offset="0.406061" style="stop-color:#333333"/><stop offset="0.490909" style="stop-color:#141414"/><stop offset="0.690909" style="stop-color:#1A1A1A"/><stop offset="1" style="stop-color:#121212"/></linearGradient><path d="M144.988281,322.063477c-4.770508,0.249023-9.682129,0.390625-14.693848,0.390625    c-24.342285,0-44.896484-4.020508-61.47998-8.283203c-28.330078-7.567383-55.769043-12.945312-55.769043-24.067383    l-0.45166,4.268555c0,11.12207,27.890625,16.494141,56.220703,24.061523c16.583496,4.261719,37.137695,8.283203,61.47998,8.283203    c5.011719,0,9.92334-0.141602,14.693848-0.391602c30.12207-1.637695,54.851074-8.200195,64.693359-16.862305v-4.261719    C199.839355,313.863281,175.110352,320.424805,144.988281,322.063477z" fill="url(#SVGID_82_)" opacity="0.8"/><linearGradient gradientUnits="userSpaceOnUse" id="SVGID_83_" x1="302.318359" x2="502.517578" y1="324.199219" y2="324.199219"><stop offset="0" style="stop-color:#1A1A1A"/><stop offset="0.169697" style="stop-color:#262626"/><stop offset="0.224242" style="stop-color:#808080"/><stop offset="0.30303" style="stop-color:#666666"/><stop offset="0.363636" style="stop-color:#333333"/><stop offset="0.454545" style="stop-color:#141414"/><stop offset="0.690909" style="stop-color:#1A1A1A"/><stop offset="0.963636" style="stop-color:#121212"/></linearGradient><path d="M443.185547,313.105469c-16.583008,4.262695-37.137695,8.283203-61.480469,8.283203    c-5.011719,0-9.922852-0.141602-14.693359-0.391602c-30.120117-1.637695-54.849609-8.200195-64.693359-16.862305v35.554688    c9.861328,9.876953,34.902344,17.363281,65.750977,19.228516c4.870117,0.291016,9.881836,0.441406,14.993164,0.441406    c24.841797,0,45.8125-4.553711,62.737305-9.382812c28.904297-8.583008,56.717773-14.685547,56.717773-27.289062l-3.5625-33.649414    C498.955078,300.160156,471.515625,305.538086,443.185547,313.105469z" fill="url(#SVGID_83_)"/><path d="M445.799805,345.714844c-16.924805,4.828125-37.895508,9.381836-62.737305,9.381836    c-5.111328,0-10.123047-0.149414-14.993164-0.441406c-30.848633-1.864258-55.889648-9.350586-65.750977-19.228516v4.262695    c9.861328,9.876953,34.902344,17.363281,65.750977,19.228516c4.870117,0.291016,9.881836,0.441406,14.993164,0.441406    c24.841797,0,45.8125-4.553711,62.737305-9.382812c28.904297-8.583008,56.717773-14.685547,56.717773-27.289062    l-0.245117-2.320312C499.558594,331.678711,473.176758,337.584961,445.799805,345.714844z" fill="#808080" opacity="0.5"/><linearGradient gradientUnits="userSpaceOnUse" id="SVGID_84_" x1="302.318359" x2="499.387695" y1="308.410156" y2="308.410156"><stop offset="0" style="stop-color:#1A1A1A"/><stop offset="0.169697" style="stop-color:#262626"/><stop offset="0.224242" style="stop-color:#808080"/><stop offset="0.30303" style="stop-color:#666666"/><stop offset="0.363636" style="stop-color:#333333"/><stop offset="0.454545" style="stop-color:#141414"/><stop offset="0.690909" style="stop-color:#1A1A1A"/><stop offset="0.963636" style="stop-color:#121212"/></linearGradient><path d="M381.705078,326.716797c24.342773,0,44.897461-4.021484,61.480469-8.283203    c28.330078-7.567383,56.202148-13.112305,56.202148-24.234375l-0.432617-4.095703c0,11.12207-27.439453,16.5-55.769531,24.067383    c-16.583008,4.262695-37.137695,8.283203-61.480469,8.283203c-5.011719,0-9.922852-0.141602-14.693359-0.390625    c-30.120117-1.638672-54.849609-8.200195-64.693359-16.862305v4.261719c9.84375,8.662109,34.573242,15.224609,64.693359,16.862305    C371.782227,326.575195,376.693359,326.716797,381.705078,326.716797z" fill="url(#SVGID_84_)" opacity="0.8"/><linearGradient gradientUnits="userSpaceOnUse" id="SVGID_85_" x1="205.575195" x2="305.40979" y1="321.780273" y2="321.780273"><stop offset="0" style="stop-color:#121212"/><stop offset="0.242424" style="stop-color:#1A1A1A"/><stop offset="0.324236" style="stop-color:#333333"/><stop offset="0.381818" style="stop-color:#676767"/><stop offset="0.406061" style="stop-color:#808080"/><stop offset="0.454545" style="stop-color:#666666"/><stop offset="0.490909" style="stop-color:#333333"/><stop offset="0.574677" style="stop-color:#141414"/><stop offset="0.622555" style="stop-color:#333333"/><stop offset="0.670434" style="stop-color:#202020"/><stop offset="0.733333" style="stop-color:#141414"/><stop offset="1" style="stop-color:#1A1A1A"/></linearGradient><path d="M302.318359,304.134766c-2.963867-2.609375-4.595703-5.40625-4.595703-8.320312v-0.625v-0.598633    c-6.384766,0.116211-8.916016,2.239258-9.764648,3.429688c-0.208984,0.033203-0.458008,0.557617-0.458008,0.798828    c0,5.208008-14.161133,9.423828-31.5,9.432617c-17.336914-0.008789-31.499512-4.224609-31.499512-9.432617    c0-0.241211-0.25-0.765625-0.458008-0.798828c-0.849121-1.19043-3.379883-3.313477-9.765137-3.429688v0.598633v0.625    c0,2.914062-1.629883,5.710938-4.595703,8.320312v35.554688c1.548828-1.550781,2.734863-3.157227,3.496582-4.814453    c0,0,0.058105-0.099609,0.058105-0.132812c0.166504-0.375,1.548828-1.81543,2.813965-1.657227    c7.209473,0.641602,8.450195,4.09668,8.450195,4.09668c0,6.49707,14.139648,11.766602,31.455566,11.786133v0.001953    c0.014648,0,0.029297,0,0.043945,0s0.029297,0,0.043945,0v-0.001953C273.361328,348.948242,287.5,343.678711,287.5,337.181641    c0,0,1.240234-3.455078,8.449219-4.09668c1.265625-0.158203,2.647461,1.282227,2.814453,1.657227    c0,0.033203,0.057617,0.132812,0.057617,0.132812c0.761719,1.657227,1.948242,3.263672,3.49707,4.814453V304.134766z" fill="url(#SVGID_85_)"/><path d="M298.763672,330.479492c-0.166992-0.374023-1.548828-1.814453-2.814453-1.65625    c-7.208984,0.640625-8.449219,4.095703-8.449219,4.095703c0,6.49707-14.138672,11.767578-31.456055,11.786133v0.001953    c-0.014648,0-0.029297,0-0.043945,0s-0.029297,0-0.043945,0v-0.001953    c-17.315918-0.018555-31.455566-5.289062-31.455566-11.786133c0,0-1.240723-3.455078-8.450195-4.095703    c-1.265137-0.158203-2.647461,1.282227-2.813965,1.65625c0,0.033203-0.058105,0.133789-0.058105,0.133789    c-0.761719,1.65625-1.947754,3.262695-3.496582,4.813477v4.262695c1.548828-1.550781,2.734863-3.157227,3.496582-4.814453    c0,0,0.058105-0.099609,0.058105-0.132812c0.166504-0.375,1.548828-1.81543,2.813965-1.657227    c7.209473,0.641602,8.450195,4.09668,8.450195,4.09668c0,6.49707,14.139648,11.766602,31.455566,11.786133v0.001953    c0.014648,0,0.029297,0,0.043945,0s0.029297,0,0.043945,0v-0.001953C273.361328,348.948242,287.5,343.678711,287.5,337.181641    c0,0,1.240234-3.455078,8.449219-4.09668c1.265625-0.158203,2.647461,1.282227,2.814453,1.657227    c0,0.033203,0.057617,0.132812,0.057617,0.132812c0.761719,1.657227,1.948242,3.263672,3.49707,4.814453v-4.262695    c-1.548828-1.550781-2.735352-3.157227-3.49707-4.813477C298.821289,330.613281,298.763672,330.512695,298.763672,330.479492z" fill="#808080" opacity="0.5"/><linearGradient gradientUnits="userSpaceOnUse" id="SVGID_86_" x1="205.575195" x2="305.40979" y1="304.618164" y2="304.618164"><stop offset="0" style="stop-color:#121212"/><stop offset="0.242424" style="stop-color:#1A1A1A"/><stop offset="0.324236" style="stop-color:#333333"/><stop offset="0.373035" style="stop-color:#676767"/><stop offset="0.398816" style="stop-color:#B3B3B3"/><stop offset="0.454545" style="stop-color:#808080"/><stop offset="0.490909" style="stop-color:#333333"/><stop offset="0.574677" style="stop-color:#141414"/><stop offset="0.622555" style="stop-color:#333333"/><stop offset="0.670434" style="stop-color:#202020"/><stop offset="0.733333" style="stop-color:#141414"/><stop offset="1" style="stop-color:#1A1A1A"/></linearGradient><path d="M297.722656,296.879883v-0.624023v-0.599609    c-6.384766,0.116211-8.916016,2.239258-9.764648,3.429688c-0.208984,0.033203-0.458008,0.557617-0.458008,0.798828    c0,5.208008-14.161133,9.424805-31.5,9.432617c-17.336914-0.007812-31.499512-4.224609-31.499512-9.432617    c0-0.241211-0.25-0.765625-0.458008-0.798828c-0.849121-1.19043-3.379883-3.313477-9.765137-3.429688v0.599609v0.624023    c0,2.914062-1.629883,5.710938-4.595703,8.321289v4.261719c2.96582-2.609375,4.595703-5.407227,4.595703-8.320312v-0.625    v-0.598633c6.385254,0.116211,8.916016,2.239258,9.765137,3.429688c0.208008,0.033203,0.458008,0.557617,0.458008,0.798828    c0,5.207031,14.162598,9.423828,31.499512,9.432617c17.338867-0.008789,31.5-4.225586,31.5-9.432617    c0-0.241211,0.249023-0.765625,0.458008-0.798828c0.848633-1.19043,3.379883-3.313477,9.764648-3.429688v0.598633v0.625    c0,2.913086,1.631836,5.710938,4.595703,8.320312v-4.261719C299.354492,302.59082,297.722656,299.793945,297.722656,296.879883z" fill="url(#SVGID_86_)" opacity="0.8"/><defs><filter filterUnits="userSpaceOnUse" height="49.458984" id="Adobe_OpacityMaskFilter_16_" width="49.769531" x="439.699219" y="303.420898"><feFlood result="back" style="flood-color:white;flood-opacity:1"/><feBlend in="SourceGraphic" in2="back" mode="normal"/></filter></defs><mask height="49.458984" id="SVGID_87_" maskUnits="userSpaceOnUse" width="49.769531" x="439.699219" y="303.420898"><g filter="url(#Adobe_OpacityMaskFilter_16_)"><defs><filter filterUnits="userSpaceOnUse" height="49.458984" id="Adobe_OpacityMaskFilter_17_" width="49.769531" x="439.699219" y="303.420898"><feFlood result="back" style="flood-color:white;flood-opacity:1"/><feBlend in="SourceGraphic" in2="back" mode="normal"/></filter></defs><mask height="49.458984" id="SVGID_87_" maskUnits="userSpaceOnUse" width="49.769531" x="439.699219" y="303.420898"><g filter="url(#Adobe_OpacityMaskFilter_17_)"/></mask><linearGradient gradientUnits="userSpaceOnUse" id="SVGID_88_" x1="441.750977" x2="483.402344" y1="331.046875" y2="325.584808"><stop offset="0" style="stop-color:#000000"/><stop offset="0.260606" style="stop-color:#FFFFFF"/><stop offset="0.769697" style="stop-color:#FFFFFF"/><stop offset="1" style="stop-color:#000000"/></linearGradient><path d="M439.699219,316.095703l3.28418,36.78418      c0.93457-0.259766,1.904297-0.511719,2.816406-0.771484c16.610352-4.932617,32.850586-9.047852,43.668945-14.046875      l-4.791016-34.640625c-10.625,4.15625-25.919922,7.655273-41.492188,11.81543      C442.057617,315.52832,440.865234,315.810547,439.699219,316.095703z" fill="url(#SVGID_88_)" mask="url(#SVGID_87_)"/></g></mask><linearGradient gradientUnits="userSpaceOnUse" id="SVGID_89_" x1="441.750977" x2="483.402344" y1="331.046875" y2="325.584808"><stop offset="0" style="stop-color:#FAFBFF"/><stop offset="0.260606" style="stop-color:#FFFFFF"/><stop offset="0.769697" style="stop-color:#FFFFFF"/><stop offset="1" style="stop-color:#FFFFFF"/></linearGradient><path d="M439.699219,316.095703l3.28418,36.78418    c0.93457-0.259766,1.904297-0.511719,2.816406-0.771484c16.610352-4.932617,32.850586-9.047852,43.668945-14.046875    l-4.791016-34.640625c-10.625,4.15625-25.919922,7.655273-41.492188,11.81543    C442.057617,315.52832,440.865234,315.810547,439.699219,316.095703z" fill="url(#SVGID_89_)" opacity="0.05"/></g></g></svg>